<svg data-v-0dd9719b="" version="1.0" xmlns="http://www.w3.org/2000/svg"
    xmlns:xlink="http://www.w3.org/1999/xlink" width="100%" height="100%"
    viewBox="0 0 137.5 137.5" preserveAspectRatio="xMidYMid meet"
    color-interpolation-filters="sRGB" style="margin: auto;">
    <g data-v-0dd9719b="" class="iconmbgsvg">
        <g fill="#000000" hollow-target="textFill" mask="url(#9122f392-53a4-4d6c-b994-d4135a795101)">
            <g>
                <g>
                    <rect fill="#000000" fill-opacity="0" stroke-width="2" x="0" y="0" width="137.5"
                        height="137.5" class="image-rect"></rect>
                    <svg x="0" y="0" width="137.5" height="137.5" filtersec="colorsb1518689355"
                        class="image-svg-svg primary" style="overflow: visible;">
                        <svg fill="#000000" xmlns="http://www.w3.org/2000/svg"
                            xmlns:xlink="http://www.w3.org/1999/xlink" xml:space="preserve"
                            version="1.1"
                            style="shape-rendering:geometricPrecision;text-rendering:geometricPrecision;image-rendering:optimizeQuality;"
                            viewBox="0 0 249 249" x="0px" y="0px" fill-rule="evenodd"
                            clip-rule="evenodd"><defs></defs><g><path class="fil0" d="M125 0c68,0 124,56 124,125 0,68 -56,124 -124,124 -69,0 -125,-56 -125,-124 0,-69 56,-125 125,-125z"></path></g></svg>
                    </svg> <!---->
                </g>
            </g>
            <g transform="translate(25.545001983642578,46.9950008392334)">
                <g data-gra="path-name" fill-rule="" class="tp-name">
                    <g transform="scale(1)">
                        <g>
                            <path
                                d="M41.29-43.51Q40.5-43.51 39.96-42.96L39.96-42.96Q39.38-42.38 39.38-41.6L39.38-41.6 39.38-23.65 6.56-23.65 6.56-41.6Q6.56-42.38 5.98-42.96L5.98-42.96Q5.43-43.51 4.65-43.51L4.65-43.51Q3.86-43.51 3.28-42.96L3.28-42.96Q2.73-42.38 2.73-41.6L2.73-41.6 2.73-1.91Q2.73-1.13 3.28-0.55L3.28-0.55Q3.86 0 4.65 0L4.65 0Q5.43 0 5.98-0.55L5.98-0.55Q6.56-1.13 6.56-1.91L6.56-1.91 6.56-19.86 39.38-19.86 39.38-1.91Q39.38-1.13 39.96-0.55L39.96-0.55Q40.5 0 41.29 0L41.29 0Q42.08 0 42.62-0.55L42.62-0.55Q43.2-1.13 43.2-1.91L43.2-1.91 43.2-41.6Q43.2-42.38 42.62-42.96L42.62-42.96Q42.08-43.51 41.29-43.51L41.29-43.51ZM89.14-33.97L89.14-41.6Q89.14-42.38 88.56-42.96L88.56-42.96Q88.01-43.51 87.23-43.51L87.23-43.51Q86.44-43.51 85.89-42.96L85.89-42.96Q85.31-42.38 85.31-41.6L85.31-41.6 85.31-33.97Q85.31-29.7 82.3-26.69L82.3-26.69Q79.26-23.65 75.02-23.65L75.02-23.65 62.79-23.65Q58.55-23.65 55.51-26.69L55.51-26.69Q52.5-29.7 52.5-33.97L52.5-33.97 52.5-41.6Q52.5-42.38 51.92-42.96L51.92-42.96Q51.37-43.51 50.59-43.51L50.59-43.51Q49.8-43.51 49.22-42.96L49.22-42.96Q48.67-42.38 48.67-41.6L48.67-41.6 48.67-33.97Q48.67-30.15 50.62-26.83L50.62-26.83Q52.5-23.62 55.71-21.77L55.71-21.77Q52.5-19.89 50.62-16.68L50.62-16.68Q48.67-13.4 48.67-9.54L48.67-9.54 48.67-1.91Q48.67-1.13 49.22-0.55L49.22-0.55Q49.8 0 50.59 0L50.59 0Q51.37 0 51.92-0.55L51.92-0.55Q52.5-1.13 52.5-1.91L52.5-1.91 52.5-9.54Q52.5-13.81 55.51-16.82L55.51-16.82Q58.55-19.86 62.79-19.86L62.79-19.86 75.02-19.86Q79.26-19.86 82.3-16.82L82.3-16.82Q85.31-13.81 85.31-9.54L85.31-9.54 85.31-1.91Q85.31-1.13 85.89-0.55L85.89-0.55Q86.44 0 87.23 0L87.23 0Q88.01 0 88.56-0.55L88.56-0.55Q89.14-1.13 89.14-1.91L89.14-1.91 89.14-9.54Q89.14-13.4 87.19-16.68L87.19-16.68Q85.31-19.89 82.1-21.77L82.1-21.77Q85.31-23.62 87.19-26.83L87.19-26.83Q89.14-30.15 89.14-33.97L89.14-33.97Z"
                                transform="translate(-2.7300000190734863, 43.5099983215332)"></path>
                        </g> <!----> <!----> <!----> <!----> <!----> <!----> <!---->
                    </g>
                </g> <!---->
            </g>
        </g>
    </g>
    <mask id="9122f392-53a4-4d6c-b994-d4135a795101">
        <g fill="white">
            <g>
                <rect fill-opacity="0" stroke-width="2" x="0" y="0" width="137.5" height="137.5"
                    class="image-rect"></rect>
                <svg x="0" y="0" width="137.5" height="137.5" filtersec="colorsb1518689355"
                    class="image-svg-svg primary" style="overflow: visible;">
                    <svg xmlns="http://www.w3.org/2000/svg"
                        xmlns:xlink="http://www.w3.org/1999/xlink" xml:space="preserve"
                        version="1.1"
                        style="shape-rendering:geometricPrecision;text-rendering:geometricPrecision;image-rendering:optimizeQuality;"
                        viewBox="0 0 249 249" x="0px" y="0px" fill-rule="evenodd"
                        clip-rule="evenodd"><defs></defs><g><path class="fil0" d="M125 0c68,0 124,56 124,125 0,68 -56,124 -124,124 -69,0 -125,-56 -125,-124 0,-69 56,-125 125,-125z"></path></g></svg>
                </svg>
            </g>
        </g>
        <g transform="translate(25.545001983642578,46.9950008392334)" fill="black">
            <g data-gra="path-name" fill-rule="" class="tp-name">
                <g transform="scale(1)">
                    <g>
                        <path
                            d="M41.29-43.51Q40.5-43.51 39.96-42.96L39.96-42.96Q39.38-42.38 39.38-41.6L39.38-41.6 39.38-23.65 6.56-23.65 6.56-41.6Q6.56-42.38 5.98-42.96L5.98-42.96Q5.43-43.51 4.65-43.51L4.65-43.51Q3.86-43.51 3.28-42.96L3.28-42.96Q2.73-42.38 2.73-41.6L2.73-41.6 2.73-1.91Q2.73-1.13 3.28-0.55L3.28-0.55Q3.86 0 4.65 0L4.65 0Q5.43 0 5.98-0.55L5.98-0.55Q6.56-1.13 6.56-1.91L6.56-1.91 6.56-19.86 39.38-19.86 39.38-1.91Q39.38-1.13 39.96-0.55L39.96-0.55Q40.5 0 41.29 0L41.29 0Q42.08 0 42.62-0.55L42.62-0.55Q43.2-1.13 43.2-1.91L43.2-1.91 43.2-41.6Q43.2-42.38 42.62-42.96L42.62-42.96Q42.08-43.51 41.29-43.51L41.29-43.51ZM89.14-33.97L89.14-41.6Q89.14-42.38 88.56-42.96L88.56-42.96Q88.01-43.51 87.23-43.51L87.23-43.51Q86.44-43.51 85.89-42.96L85.89-42.96Q85.31-42.38 85.31-41.6L85.31-41.6 85.31-33.97Q85.31-29.7 82.3-26.69L82.3-26.69Q79.26-23.65 75.02-23.65L75.02-23.65 62.79-23.65Q58.55-23.65 55.51-26.69L55.51-26.69Q52.5-29.7 52.5-33.97L52.5-33.97 52.5-41.6Q52.5-42.38 51.92-42.96L51.92-42.96Q51.37-43.51 50.59-43.51L50.59-43.51Q49.8-43.51 49.22-42.96L49.22-42.96Q48.67-42.38 48.67-41.6L48.67-41.6 48.67-33.97Q48.67-30.15 50.62-26.83L50.62-26.83Q52.5-23.62 55.71-21.77L55.71-21.77Q52.5-19.89 50.62-16.68L50.62-16.68Q48.67-13.4 48.67-9.54L48.67-9.54 48.67-1.91Q48.67-1.13 49.22-0.55L49.22-0.55Q49.8 0 50.59 0L50.59 0Q51.37 0 51.92-0.55L51.92-0.55Q52.5-1.13 52.5-1.91L52.5-1.91 52.5-9.54Q52.5-13.81 55.51-16.82L55.51-16.82Q58.55-19.86 62.79-19.86L62.79-19.86 75.02-19.86Q79.26-19.86 82.3-16.82L82.3-16.82Q85.31-13.81 85.31-9.54L85.31-9.54 85.31-1.91Q85.31-1.13 85.89-0.55L85.89-0.55Q86.44 0 87.23 0L87.23 0Q88.01 0 88.56-0.55L88.56-0.55Q89.14-1.13 89.14-1.91L89.14-1.91 89.14-9.54Q89.14-13.4 87.19-16.68L87.19-16.68Q85.31-19.89 82.1-21.77L82.1-21.77Q85.31-23.62 87.19-26.83L87.19-26.83Q89.14-30.15 89.14-33.97L89.14-33.97Z"
                            transform="translate(-2.7300000190734863, 43.5099983215332)"></path>
                    </g>
                </g>
            </g>
        </g>
    </mask>
    <defs v-gra="od"></defs>
</svg>