<svg width="90" height="100" viewBox="0 0 90 100" fill="none" xmlns="http://www.w3.org/2000/svg">
<path d="M70.815 80.6728L60.8046 49.8596L87.0094 30.8213H54.6171L44.6056 0.0087108L44.6025 0.000348432H76.9997L87.0136 30.8178L87.0143 30.8171L87.0227 30.8125C92.838 48.6906 86.8484 69.0251 70.815 80.6725V80.6728ZM18.3934 80.6728L18.3854 80.6787L44.5972 99.7223L70.815 80.6735L44.6056 61.6296L18.3938 80.6728H18.3934ZM2.19308 30.8132C-3.92887 49.6592 3.1774 69.6286 18.3885 80.6767L18.391 80.6669L28.4032 49.8554L2.20388 30.8206H34.5885L44.6004 0.00836237L44.6025 0H12.2035L2.19273 30.8132H2.19308Z" fill="#EB5424"/>
</svg>
