<svg width="100" height="39" viewBox="0 0 100 39" fill="none" xmlns="http://www.w3.org/2000/svg">
<path d="M68.582 3.45645L68.5597 3.24219L68.2127 3.27188L68.2347 3.48594L68.582 3.45645ZM70.9158 9.06934L70.9232 9.1875L71.167 9.16543C71.1595 9.0916 71.189 8.97344 71.2408 8.82578L71.2185 8.61152C71.1152 8.61895 71.0117 8.77402 70.9158 9.06934ZM61.8093 16.1373C61.7947 15.9379 61.1742 15.1625 59.9482 13.7961C59.9261 13.5451 60.347 13.1684 61.2111 12.6736L63.6779 10.5244C64.2318 9.82266 64.5568 8.68535 64.6529 7.10488L64.6232 6.74297C64.5273 5.65 63.7371 4.77109 62.2379 4.09902C61.3515 3.50078 59.7562 3.16836 57.4519 3.10938C55.5465 3.27188 53.0576 3.95117 49.9926 5.15508C49.1506 5.76074 48.1906 6.36641 47.1123 6.97187L47.1269 7.15664C47.1935 7.14922 47.2969 7.1123 47.415 7.03105C47.5406 7.01621 47.6144 7.07539 47.6219 7.19355L47.8064 7.09746L47.8951 7.09004L47.9025 7.17129C47.9099 7.26738 47.2451 7.7918 45.901 8.72969L46.0045 8.92168L45.9158 8.9291L45.6941 8.84785C45.7015 8.91426 45.6056 8.95859 45.4209 8.97344L45.4283 9.05469L45.6426 9.32051C45.5761 9.32793 45.4726 9.29844 45.3324 9.24668C45.022 9.27617 44.7193 9.43867 44.4166 9.74883L44.5422 9.20234C44.9926 7.25996 45.3027 5.53906 45.4652 4.04727L45.4431 3.95117C45.133 3.75176 44.8301 3.47109 44.5494 3.1166C44.5568 2.8877 44.5568 2.75488 44.5494 2.7252L44.5273 2.64395L44.4386 2.66621C43.4638 4.12852 41.5879 6.6248 38.8035 10.1551C36.684 12.6662 35.5908 14.0621 35.5244 14.3428C34.6603 15.2363 34.2467 15.7756 34.291 15.9602C34.0621 16.1078 33.966 16.2555 34.0029 16.418C33.9365 16.4328 33.8922 16.4107 33.8773 16.3441C33.5082 16.9424 32.9615 17.3264 32.2304 17.4963L31.4623 17.6736C31.359 17.6957 31.3072 17.7695 31.3146 17.8951L31.3367 17.9912L31.6248 17.9246L31.647 18.0059L30.997 18.257L29.8449 18.5229L29.2392 18.5598C29.1506 18.6484 29.7193 18.5525 29.4978 18.6041L28.7445 18.7814C28.2865 18.8848 28.0355 18.8479 27.9912 18.6633L27.9025 18.6854C27.9174 18.7666 27.9246 18.8258 27.9099 18.8773L27.8656 18.6928L27.2599 18.833C27.2156 18.5525 26.3959 17.5332 24.808 15.7756C24.7785 15.4357 25.3396 14.9408 26.4845 14.2984L29.7193 11.4549C30.4431 10.5244 30.8715 9.03242 31.0119 6.9793L30.9676 6.49922C30.842 5.05176 29.7931 3.88477 27.8213 2.98379C26.6543 2.19355 24.5568 1.77246 21.5289 1.70605C19.0177 1.92031 15.7385 2.81387 11.706 4.37227C10.5982 5.17715 9.33533 5.9748 7.91736 6.76504L7.93943 7.01621C8.03552 7.00879 8.16091 6.95723 8.31599 6.86855C8.47849 6.85371 8.56716 6.92754 8.58201 7.07539L8.83298 6.93496L8.95857 6.92754L8.96599 7.0457C8.97341 7.16387 8.09451 7.85078 6.31462 9.10625L6.45486 9.32793L6.32947 9.33535L6.05603 9.23926C6.06345 9.31309 5.93787 9.36484 5.67947 9.38691L5.69412 9.51992L5.98962 9.84492C5.89373 9.85234 5.76072 9.82266 5.5908 9.76367C5.01482 9.81543 4.45349 10.2289 3.89959 11.0119L4.03982 11.2334C4.5199 10.7902 4.80056 10.5688 4.88181 10.5613L4.9113 10.9232C4.83005 10.9307 4.70447 10.9822 4.53474 11.0709L4.83748 11.5289C5.40937 10.9107 6.05708 10.3672 6.76521 9.91133C7.11228 10 7.29685 10.1107 7.30427 10.2289L7.57009 10.2068C9.47556 8.79609 11.359 7.77695 13.2275 7.14922L13.2496 7.4002C12.9025 7.91719 12.6662 8.1832 12.5406 8.19785C12.5554 8.3752 12.6144 8.53027 12.7252 8.66328C12.7549 8.98086 11.9054 11.1227 10.1845 15.0813C6.27771 24.2836 2.99841 31.093 0.332397 35.4949C0.339624 35.5834 0.391382 35.7016 0.487476 35.8494C1.1447 35.6943 1.55837 35.5318 1.73552 35.3766L1.87595 35.3619L1.89802 35.6131L2.14177 35.5908L2.39294 35.4506C2.40037 35.5244 2.48162 35.5613 2.65134 35.5465L2.67361 35.7977C2.69568 36.0414 2.55544 36.4105 2.25994 36.9203C1.99412 37.223 1.70603 37.8582 1.4033 38.8258L1.41052 38.9439L1.65427 38.9217C2.71794 37.7326 3.52283 36.5656 4.07673 35.4283C7.17869 34.5199 9.54216 33.6264 11.1816 32.7475C12.8287 32.607 14.0842 32.1713 14.941 31.4549L14.9261 31.3221L14.3058 31.5066L14.1654 31.5215L14.1506 31.3885C15.3619 31.2039 16.1965 30.9379 16.6617 30.5688C19.0177 28.7518 20.7976 27.4668 22.0015 26.7061C24.4756 24.8893 26.0857 23.1166 26.8168 21.3959C26.9551 21.3658 27.093 21.3337 27.2304 21.2998C27.5775 21.2852 27.7695 21.2777 27.8213 21.2629C27.8064 21.1965 27.8361 21.1596 27.9025 21.1447C28.4564 21.0857 28.1906 21.1816 28.5451 21.1004L29.4756 20.8863C29.4166 20.901 29.3943 20.9307 29.4092 20.9896L29.5494 20.901C29.5199 20.901 29.4978 20.8938 29.4756 20.8863L29.6306 20.8494L29.5568 20.8937C29.6603 20.9084 29.7711 20.901 29.8967 20.8715L29.9631 21.1447L25.7312 27.873L24.7931 29.0473L24.3353 30.5834L24.424 30.5613L24.8818 30.3693L24.7342 30.9676L24.7785 31.1447L24.9039 31.2998C24.8449 31.3147 24.8228 31.3516 24.8375 31.418L24.8597 31.5141L25.0517 31.4697C25.3324 31.226 25.4506 31.0045 25.4062 30.8051C25.709 30.8566 25.9084 30.8789 26.0119 30.8494L26.034 30.9453C25.8494 30.9897 25.7533 31.1373 25.7385 31.3885L25.7607 31.4846L25.864 31.4623C27.4004 29.7857 31.167 24.0473 34.1877 20.1551C34.0916 19.7342 35.6646 19.1506 38.9142 18.3973L39.0177 18.3752C39.1359 18.8848 38.8847 20.1182 38.2644 22.0754C37.8656 23.257 37.6736 23.907 37.7031 24.0104C37.1861 25.5834 36.9424 26.4328 36.9719 26.5658L35.8197 30.3397C35.0738 32.2748 34.5052 34.3059 34.1064 36.4477C34.1728 36.4328 34.2761 36.4402 34.424 36.4771L34.5863 36.3367C34.6011 36.4033 34.6455 36.4254 34.7119 36.4105L34.6455 36.1373L35.1476 36.1227C35.2953 36.0857 35.4209 35.901 35.5244 35.5613C35.5021 35.0518 35.6056 34.7785 35.8345 34.7193C36.1447 33.5082 36.3367 32.9025 36.4033 32.8803C36.6912 31.6766 36.9054 30.9896 37.0457 30.8197C37.4816 29.2541 37.799 28.449 38.0058 28.3973L38.0502 28.5895L37.7326 29.4092C37.1787 31.8686 36.6174 33.8109 36.0488 35.2363L36.2113 35.9453L36.3146 35.9232C37.6883 32.9689 39.6676 27.1197 42.2451 18.3752C42.3191 17.607 42.6883 17.0088 43.3457 16.5879L43.1978 16.4328L43.1758 16.3516C43.4713 16.2852 43.6779 16.167 43.7961 16.0045C43.7814 15.9379 43.5228 15.842 43.0207 15.709L44.3058 10.1994C44.5863 9.94824 44.7488 9.81543 44.8006 9.81543L44.8228 10.0961C44.7562 10.1033 44.6529 10.1402 44.5347 10.2215L44.7785 10.5687C45.2215 10.0887 45.7015 9.675 46.226 9.32793C46.4918 9.40176 46.6248 9.49043 46.6396 9.5791L46.8316 9.56426C48.2939 8.49336 49.7267 7.7252 51.1373 7.25996L51.1521 7.44453C50.8937 7.83594 50.7164 8.03535 50.6203 8.04277C50.6351 8.17578 50.672 8.29394 50.7385 8.39727C50.7607 8.64102 50.1256 10.2658 48.8258 13.2791C45.8566 20.2584 43.3678 25.4209 41.3441 28.774C41.3515 28.8404 41.3959 28.9291 41.4771 29.0473C41.9719 28.9291 42.2894 28.8035 42.415 28.6854L42.5037 28.6779L42.5185 28.8627L42.7252 28.8479L42.9099 28.7518C42.9172 28.8035 42.9838 28.8258 43.1094 28.8184L43.124 29.0178C43.1388 29.1949 43.0355 29.4756 42.8064 29.8596C42.5924 30.0887 42.3707 30.5688 42.1343 31.2998L42.1418 31.3959L42.3338 31.3811C43.1388 30.4801 43.7517 29.5938 44.1728 28.7223C46.5287 28.0281 48.3234 27.3561 49.5642 26.6912C50.8271 26.5805 51.7799 26.2555 52.4299 25.709L52.4224 25.6131L51.9424 25.7533L51.839 25.7607L51.8316 25.6646C52.7474 25.5318 53.39 25.325 53.7371 25.0518C55.5244 23.6779 56.876 22.6957 57.7918 22.1197C60.6426 20.0443 61.9718 18.0502 61.8093 16.1373ZM61.322 16.2629L61.3885 17.0088C61.2998 17.1936 61.2039 17.2895 61.1152 17.2969L61.0045 16.0266C61.2111 16.1004 61.3146 16.1742 61.322 16.2629ZM5.3988 10.2512L5.27322 10.2584L5.25115 10.0295L5.76072 9.98516L5.76814 10.1033C5.68689 10.1107 5.5613 10.1551 5.3988 10.2512ZM2.90994 35.1477C2.61443 35.0148 2.34861 34.9631 2.1197 34.9852L2.09001 34.6232C2.07537 34.483 2.15662 34.3869 2.33376 34.35C2.49626 34.3354 2.59236 34.4535 2.60701 34.6898C3.03552 34.1654 3.27185 33.8996 3.31619 33.8922L3.58943 34.0029C3.50076 34.7416 3.27185 35.1182 2.90994 35.1477ZM29.5053 7.32637C29.3797 7.34121 29.1285 6.9498 28.7666 6.17422L28.7445 5.94531C28.9808 5.92324 29.2246 6.30723 29.483 7.09746L29.5053 7.32637ZM29.1506 4.57168L29.0472 4.81543L25.4357 3.30879C27.8433 3.39004 29.0842 3.81094 29.1506 4.57168ZM13.8996 17.6662L13.39 17.7105L13.3677 17.4814L13.8773 17.4373L13.8996 17.6662ZM13.4859 9.80059L13.6115 9.79316L13.641 10.1551C13.5228 10.1625 13.3677 10.3396 13.1758 10.6795L13.1535 10.4283C13.3826 10.1551 13.5008 9.94824 13.4859 9.80059ZM12.415 12.3264L12.4594 12.8064L12.3338 12.8139L12.2894 12.3338L12.415 12.3264ZM11.8537 13.2275L12.0974 13.2053C12.0754 13.6041 11.9646 13.8184 11.7652 13.833L11.6396 13.8404C11.7947 13.5746 11.8685 13.3678 11.8537 13.2275ZM11.4328 14.483L11.573 14.4682L11.5804 14.5863L11.3515 14.9705L11.1078 14.9926L11.1004 14.8744C11.3441 14.8523 11.4549 14.7268 11.4328 14.483ZM11.0191 15.6131L10.9453 16.2186L10.8197 16.226L10.7681 15.6277L11.0191 15.6131ZM6.87595 27.393C6.71345 28.2201 6.53611 28.641 6.35154 28.6559L6.34412 28.5377C6.29978 28.1314 6.47712 27.7475 6.87595 27.393ZM6.11521 29.0398L6.12263 29.158C6.13728 29.3205 6.06345 29.4166 5.90095 29.4238L5.89373 29.3057C5.87888 29.1654 5.95271 29.0768 6.11521 29.0398ZM5.89373 32.4594L6.27771 32.4225L6.29236 32.5555C6.19646 32.5627 6.07087 32.6145 5.9158 32.7031L5.67205 32.7252C5.6572 32.5998 5.73845 32.5037 5.89353 32.4594H5.89373ZM16.8242 29.0842C14.6676 30.1477 13.3972 30.8715 13.0207 31.248C10.6869 32.0605 9.52732 32.5627 9.54939 32.7621C7.47419 33.582 6.10779 34.1877 5.45056 34.5643C5.29548 34.5791 5.0738 34.5199 4.77849 34.3869C4.74158 33.966 4.93357 33.6264 5.33962 33.3531C5.70154 33.3234 6.04861 33.3752 6.38103 33.5154C6.76521 33.316 7.43728 33.0945 8.39001 32.8582L8.36775 32.607L7.59978 32.6736C7.69568 32.5406 8.43416 32.1936 9.82263 31.6322L10.2068 31.5953L10.2142 31.7135C9.55681 31.7725 9.1949 31.9647 9.11365 32.3117C9.12849 32.4668 9.21716 32.5332 9.37966 32.5186C9.87439 32.2082 10.1181 32.0236 10.1107 31.9719C11.0488 31.7947 13.641 30.4357 17.8877 27.9025L17.9099 28.1314C17.9174 28.2422 17.5554 28.5523 16.8242 29.0842ZM10.3101 31.226C10.9306 31.1742 11.4623 30.9232 11.9054 30.4875C12.0826 30.4727 12.1787 30.5391 12.1861 30.6941C11.8832 30.7238 11.2998 30.9748 10.4506 31.4623L10.325 31.4697L10.3101 31.226ZM20.8197 23.1535L17.5627 25.7313C15.1402 27.3191 13.8404 28.1166 13.6558 28.1314C9.80056 30.2512 7.40037 31.3516 6.4697 31.4328L6.32947 31.4475C6.44763 31.0119 8.16091 27.5037 11.4845 20.901C12.9469 20.7754 15.2511 20.0961 18.39 18.8553L19.158 18.7887C20.7459 18.6484 21.9349 18.9586 22.7179 19.6973L22.7621 20.1771C22.1713 21.876 21.5215 22.8656 20.8197 23.1535ZM14.4535 19.5717L14.9779 19.5273L14.9851 19.6455L14.4609 19.6898L14.4535 19.5717ZM21.8168 18.3234L22.201 18.2865C22.5554 18.4564 22.74 18.6041 22.7549 18.7371L22.7621 18.8553C22.4224 18.8848 22.1049 18.7076 21.8168 18.3234ZM22.8582 12.393C22.5185 12.799 21.5879 13.4934 20.0664 14.4682C19.5642 14.5125 17.6957 15.2363 14.4609 16.6543C14.2992 16.5804 14.121 16.5499 13.9439 16.5658L13.9217 16.3367C13.8847 15.8715 14.0916 15.2881 14.5494 14.5791C14.8006 13.2496 15.0738 12.4889 15.3767 12.3043L18.0724 6.24082C18.0427 5.86406 18.6189 5.57598 19.8006 5.37656L20.1845 5.33965L20.2142 5.68691C21.3736 5.50957 22.0974 5.40625 22.3781 5.38398C24.5199 5.19941 25.6351 5.63516 25.7238 6.67656L25.9676 6.6543L25.9158 6.04141L26.1816 6.01914C26.8094 6.36641 27.1492 6.7873 27.1935 7.28203C27.223 7.62187 27.0385 8.04277 26.6469 8.54512C26.4845 8.55977 26.3885 8.4416 26.3736 8.20527L26.1078 8.22754L26.0488 8.96601C24.9631 10.5908 24.1728 11.4254 23.6853 11.4697C23.2422 12.0828 22.9689 12.3855 22.8582 12.393ZM24.5125 16.6396C24.291 16.4918 24.1136 16.4254 23.9808 16.4328L23.9511 16.0709L24.1949 16.0488L24.7342 16.3664C24.7562 16.5361 24.6824 16.6248 24.5125 16.6396ZM26.226 18.6705C26.4623 18.7666 26.6027 18.8699 26.6322 18.966L26.514 18.9955L26.5215 19.0029C26.4992 19.0029 26.4697 19.0104 26.4474 19.0178L26.2703 19.158L26.226 18.6705ZM26.3885 19.6898L26.3664 19.5938L26.6765 19.5199L26.6986 19.616L26.3885 19.6898ZM27.1343 20.5244C27.4519 20.4727 27.607 20.4506 28.1978 20.3176L28.2201 20.4137L27.0974 20.6721C27.1123 20.6203 27.1269 20.5688 27.1343 20.5244ZM28.2275 20.9896C27.7549 21.034 27.8582 20.9748 27.1049 21.1447L27.0826 21.0488L28.0207 20.7459L28.4713 20.6426L28.5154 20.8197C28.316 20.8641 28.4638 20.8641 28.2275 20.9896ZM29.2246 20.7533C29.1136 20.7828 29.0252 20.7312 28.9734 20.6057L29.2615 20.5391C29.3869 20.5096 29.4681 20.5613 29.4978 20.6869L29.2246 20.7533ZM31.9275 17.8434L31.9054 17.7475L32.3707 17.6367L32.415 17.8139L31.9275 17.8434ZM34.8154 35.5539C34.8449 35.4209 34.8523 35.325 34.8375 35.2584L34.941 35.2363C35.0664 35.2068 35.1402 35.2512 35.1699 35.3693L35.192 35.4652L34.8154 35.5539ZM36.839 18.6041L36.6322 18.5672C36.2998 18.7002 36.0191 18.7961 35.7902 18.8479L35.5982 18.8922C35.4875 18.9217 35.3988 18.8773 35.3545 18.7592L36.706 18.449L37.1492 18.2422L37.2969 18.4121C37.0826 18.4564 36.9275 18.5229 36.839 18.6041ZM37.8803 18.2717L37.8582 18.1758C37.9246 18.1609 38.0133 18.1094 38.1094 18.0133L39.0693 17.7918L39.0916 17.8877C38.582 18.0133 38.1758 18.1389 37.8803 18.2717ZM38.0281 16.3293C37.9615 16.3441 37.873 16.4033 37.7621 16.4918C37.7474 16.4254 37.6144 16.4254 37.3633 16.4846C37.3191 16.2998 38.0281 16.0414 39.4978 15.7016L39.7045 15.6572L39.7488 15.8346C38.7148 16.1373 38.1388 16.3072 38.0281 16.3293ZM40.6131 13.5377C40.5095 14.7119 40.0961 15.3768 39.3648 15.5465L39.3428 15.4506L38.6927 15.7016L38.4047 15.7682C38.257 15.8051 38.124 15.7977 38.0058 15.7607L37.9468 15.5021C37.9246 15.4062 38.8627 14.1062 40.7681 11.61L40.9896 11.6471C41.0709 11.9867 40.9453 12.6145 40.6131 13.5377ZM45.1845 9.62324L45.0961 9.63066L45.0812 9.44609L45.4652 9.40918L45.4726 9.50508C45.4062 9.51992 45.3101 9.55684 45.1845 9.62324ZM43.3013 28.5377C43.0797 28.4342 42.8802 28.39 42.7105 28.4047L42.6883 28.124C42.6808 28.0281 42.74 27.9615 42.8656 27.9246C42.9912 27.91 43.065 27.9984 43.0797 28.1906C43.3972 27.7844 43.5746 27.5775 43.6115 27.5775L43.8109 27.6588C43.7371 28.2201 43.5672 28.5154 43.3013 28.5377ZM63.4933 7.41504C63.3972 7.42246 63.2127 7.12695 62.9246 6.52871L62.9099 6.34414C63.0945 6.3293 63.2865 6.61738 63.4785 7.2082L63.4933 7.41504ZM63.2275 5.30273L63.1388 5.49473L60.4062 4.35C62.2304 4.40918 63.1758 4.72676 63.2275 5.30273ZM51.6396 15.2512L51.2554 15.2881L51.2408 15.1033L51.6248 15.0738L51.6396 15.2512ZM51.322 9.27617L51.4254 9.26875L51.4474 9.54941C51.3515 9.55684 51.2334 9.68984 51.0929 9.94824L51.0783 9.76367C51.2482 9.54941 51.3293 9.38691 51.322 9.27617ZM50.517 11.1965L50.5465 11.5584L50.4431 11.5658L50.4135 11.2039L50.517 11.1965ZM50.0812 11.8834L50.2732 11.8686C50.2511 12.1787 50.1699 12.3412 50.0295 12.3561L49.9261 12.3633C50.0369 12.1566 50.0886 11.9941 50.0812 11.8834ZM49.7711 12.8287L49.8597 12.8213L49.867 12.9172L49.6972 13.2127L49.5051 13.2275L49.4978 13.1314C49.6972 13.1166 49.7857 13.0133 49.7711 12.8287ZM49.4609 13.6854L49.3943 14.158L49.3056 14.1654L49.2687 13.7002L49.4609 13.6854ZM46.3072 22.6439C46.1816 23.2645 46.0488 23.582 45.9084 23.5967L45.901 23.5154C45.8789 23.2053 46.0117 22.91 46.3072 22.6439ZM45.7238 23.8922L45.731 23.9734C45.7459 24.1063 45.6869 24.1803 45.5539 24.1875L45.5465 24.0916C45.539 23.9955 45.5982 23.9291 45.7238 23.8922ZM45.5613 26.4918L45.8566 26.4697L45.864 26.5656C45.7976 26.573 45.6941 26.61 45.576 26.6766L45.384 26.6912C45.3765 26.5879 45.4357 26.5215 45.5613 26.4918ZM53.8553 23.9291C52.2304 24.7342 51.2629 25.2807 50.9601 25.5613C49.1875 26.1816 48.3088 26.5658 48.3234 26.7209C46.7504 27.3486 45.7164 27.799 45.2289 28.0871C45.1107 28.0945 44.9408 28.0502 44.7193 27.9469C44.6898 27.6293 44.8375 27.3707 45.1476 27.1787C45.4283 27.1566 45.6941 27.1936 45.9379 27.2969C46.2334 27.1492 46.7429 26.9867 47.4668 26.8022L47.4519 26.6174L46.8463 26.6617C46.9203 26.5584 47.4888 26.2924 48.5451 25.8641L48.8404 25.842L48.8478 25.9232C48.3457 25.9676 48.065 26.1152 48.0058 26.3811C48.0133 26.4992 48.0871 26.5584 48.2127 26.5436C48.582 26.2998 48.7592 26.1596 48.7592 26.1152C49.4681 25.9897 51.4328 24.9557 54.6603 23.0207L54.675 23.2053C54.6824 23.2865 54.4092 23.5229 53.8553 23.9291ZM48.907 25.5539C49.3869 25.5096 49.7931 25.325 50.133 25C50.2584 24.9852 50.3324 25.0443 50.3396 25.1625C50.1181 25.1846 49.6824 25.3693 49.025 25.7238L48.9217 25.7313L48.907 25.5539ZM56.898 19.4166L54.4387 21.3959C52.5996 22.5996 51.6027 23.2053 51.4474 23.2201C48.5228 24.8301 46.706 25.6646 45.9896 25.7238L45.8863 25.7313C45.9748 25.3988 47.2822 22.7326 49.808 17.7252C50.9084 17.6293 52.6513 17.1049 55.0443 16.1596L55.6426 16.1078C56.8463 16.0045 57.7474 16.2408 58.3383 16.8094L58.3677 17.1713C57.9172 18.4416 57.4299 19.1875 56.898 19.4166ZM52.0679 16.6986L52.4519 16.6617L52.4594 16.7578L52.0754 16.7947L52.0679 16.6986ZM57.6588 15.7459L57.9543 15.7238C58.2275 15.8566 58.3678 15.975 58.3752 16.0709L58.3826 16.1521C58.124 16.1742 57.8803 16.0414 57.6588 15.7459ZM58.4342 11.2482C58.1758 11.5584 57.4742 12.09 56.3295 12.8287C55.9453 12.8656 54.5273 13.4121 52.0754 14.4756C51.9572 14.4312 51.8242 14.4166 51.6838 14.424L51.6691 14.2393C51.6396 13.8848 51.7947 13.4416 52.1344 12.9025C52.3263 11.8834 52.5406 11.3146 52.7621 11.1816L54.8226 6.57305C54.8006 6.2998 55.2363 6.07832 56.1226 5.9084L56.4179 5.88633L56.4402 6.16699C57.3117 6.02656 57.8582 5.94531 58.0797 5.92324C59.7045 5.78281 60.5539 6.10781 60.6203 6.90547L60.8123 6.89062L60.7754 6.44746L60.9676 6.43281C61.4402 6.69121 61.6912 7.00156 61.7209 7.3707C61.7429 7.63672 61.6099 7.96152 61.3293 8.33828C61.2039 8.35293 61.1301 8.26445 61.1152 8.07246L60.9232 8.08711L60.864 8.64102C60.0443 9.88926 59.4461 10.5318 59.0693 10.5613C58.7371 11.0119 58.5303 11.2408 58.4342 11.2482ZM59.2984 14.3205L59.2761 14.0398L59.4681 14.0252L59.8818 14.2762C59.8892 14.3943 59.8301 14.4609 59.7045 14.4756C59.5273 14.3648 59.3943 14.3131 59.2984 14.3205ZM24.9187 32.26L24.7267 32.3043L24.5642 32.4445C24.5937 32.5627 24.6676 32.607 24.7931 32.5775C24.9187 32.548 24.9705 32.4742 24.941 32.3561L24.9187 32.26ZM24.1877 30.8051L24.2097 30.901C24.3353 30.8715 24.3869 30.7977 24.3574 30.6795L24.3353 30.5834C24.2172 30.6131 24.1654 30.6869 24.1877 30.8051ZM29.3869 18.4342L29.6086 18.3826L29.5642 18.1906L29.3428 18.2422L29.3869 18.4342ZM96.4033 24.0621C94.158 24.5643 93.8773 24.4756 93.4047 24.5125L93.4195 24.6973L93.6263 24.6824L93.7371 24.675L93.7076 24.6529L93.9511 24.5568C96.1742 24.3131 96.4328 24.4018 96.4105 24.1506L96.4033 24.0621ZM84.3131 25.6646L84.3279 25.8494H84.3574L84.3428 25.6646H84.3131ZM82.9246 20.7977L82.7252 20.7312C82.5627 21.167 82.4814 21.4254 82.4888 21.4992L82.4963 21.5805C82.6513 21.573 82.7918 21.3072 82.9246 20.7977ZM96.8611 24.0252L96.876 24.2098L97.2008 24.2687L97.1861 24.0842L96.8611 24.0252ZM81.5804 25.8936L81.0783 25.8346L80.9896 26.0266L80.997 26.1227L83.9881 25.8715L83.9734 25.6869L81.5804 25.8936ZM80.2215 19.3428L80.2142 19.2467L80.1107 19.2541L79.9261 19.3723L80.0295 19.5494C80.1699 19.5348 80.2363 19.4682 80.2215 19.3428ZM98.2791 22.6662L98.4195 22.6514C98.5008 22.6439 98.5377 22.5775 98.5303 22.4594L98.449 22.282C97.9394 22.3264 97.7031 22.3486 97.2894 22.5775L97.282 22.4816L96.6691 22.5406C96.6543 22.3561 96.6027 22.26 96.5215 22.2674L96.2039 22.2969C95.8345 22.3264 95.6572 22.3117 95.4726 22.452C95.4652 22.3855 95.4431 22.3561 95.4062 22.3561L95.0517 22.3855L94.8449 22.5037C94.8375 22.4373 94.8154 22.4076 94.7783 22.4076L94.6529 22.5186L94.6455 22.4225L94.1506 22.3855L94.0324 22.393L94.0472 22.5775L94.2984 22.6439L94.5347 22.6293C94.616 22.6811 94.7045 22.6957 94.808 22.6883L95.0148 22.585L95.022 22.6662C93.8627 22.9543 93.8699 22.9025 93.0722 23.0355C92.9838 22.9764 92.9172 22.9469 92.8728 22.9543L92.8582 22.9689C92.7695 22.9615 92.7178 22.9025 92.7105 22.8064L93.124 22.7549C93.1535 22.7549 93.1758 22.7844 93.4047 22.8287C93.7371 22.6662 93.7517 22.5996 93.9291 22.585L93.9142 22.4002C92.7769 22.6219 93.2347 22.4742 91.8093 22.5996L91.7429 22.607L91.7281 22.4225C93.5597 22.201 92.9468 22.3264 93.5746 22.1492C93.582 22.2156 93.6041 22.2451 93.641 22.2451C93.7083 22.1764 93.7968 22.1322 93.8922 22.1197L94.0178 22.1123C94.6601 22.0605 94.8744 22.1861 96.1447 21.8316L96.1521 21.9129L96.359 21.8094L96.551 21.7947C96.5361 21.61 96.8168 21.5805 96.9129 21.573L96.898 21.3736C94.6676 21.8242 94.0842 21.6986 93.4638 21.876L93.4564 21.7947C92.873 21.898 92.8508 21.8537 92.7031 21.8611C92.6588 21.8686 92.5924 21.9055 92.5183 21.9793C92.5111 21.9129 92.4888 21.8832 92.4445 21.8832C92.4224 21.8832 92.415 21.8906 92.4076 21.8906L90.517 22.2008C90.5095 22.1492 90.4875 22.1197 90.4431 22.127C89.4609 22.3338 89.7267 22.3707 88.4121 22.4889C88.3529 22.4963 88.2719 22.5258 88.1683 22.5924C88.1609 22.5406 88.1314 22.5111 88.065 22.5184L87.2599 22.585L86.7209 22.7178C86.7134 22.6662 86.684 22.6367 86.6174 22.6439C86.3146 22.7252 86.0488 22.777 85.8345 22.7918H85.8197C85.6869 22.8064 85.8863 22.7549 85.7828 22.7105L85.6203 22.8064C85.384 22.8287 85.5095 22.7918 84.6972 22.799C83.2719 22.9764 83.4269 22.9984 83.2719 23.0059L82.74 22.9689C82.7474 23.0207 82.7179 23.0576 82.6588 23.0576C82.0531 22.9764 81.7429 22.8803 81.7355 22.7695C81.8168 22.1936 81.9572 21.898 82.1566 21.8832L82.2599 21.876L82.1713 22.068L82.2748 22.0605C82.4668 21.9572 82.5554 21.8611 82.548 21.7725L82.5332 21.573L82.3412 21.5879L82.3263 21.4033C82.3117 21.2629 82.3338 21.1373 82.3855 21.034L82.8213 20.3324L82.8361 20.517L83.0427 20.5021L83.0281 20.3176L82.9099 20.1477C83.065 20.0148 83.1832 19.9408 83.2791 19.9336L83.2719 19.8375L82.9912 19.8598L82.9689 19.5791C83.5303 18.4121 83.7961 17.7326 83.7814 17.5406L83.9808 17.6219C84.1064 17.6145 84.1654 17.5406 84.158 17.4076L83.966 17.4225L83.9586 17.3412C83.9451 17.2064 83.9707 17.0705 84.0324 16.9498C84.3353 16.6322 84.4756 16.3146 84.4461 15.9822C84.5052 15.9748 84.5347 16.0045 84.5422 16.0709C84.8006 15.9232 85 15.5318 85.1476 14.8818C85.6056 14.0547 86.2554 12.4004 87.1049 9.92617C88.7297 5.55391 88.6633 5.08867 88.8922 4.05469L88.7002 4.06934C88.7148 4.20234 88.6853 4.32793 88.6263 4.44609C88.4933 4.39434 88.39 4.36484 88.3162 4.37227L88.3088 4.29102C88.2791 3.91426 88.4343 3.46387 88.7888 2.93203L88.8773 2.92461L89.0398 3.55977L89.2318 3.54512C89.2246 3.50078 89.2761 3.24961 89.3797 2.78437C89.3722 2.68828 89.2984 2.6293 89.1506 2.62188L88.966 2.74004C88.9513 2.60703 88.9586 2.25996 88.9808 1.70605L88.8847 1.71348C88.7222 1.55098 88.641 1.41797 88.6336 1.30723L87.5775 1.41055C87.5701 1.33672 87.5332 1.22598 87.4594 1.08574C87.4519 0.989648 87.6883 0.893555 88.1758 0.797656L88.39 0.878906L88.5894 0.760742C88.5967 0.827148 88.6336 0.856641 88.7074 0.849414L88.9068 0.73125C88.9142 0.797656 88.9511 0.827148 89.0252 0.819727L89.1211 0.8125L89.1062 0.598242C88.9586 0.613086 88.5672 0.613086 87.9469 0.59082L87.7474 0.723828L87.74 0.605664C82.7844 1.01172 79.9705 1.24082 79.2984 1.30723C79.2097 1.31465 78.8627 1.30723 78.2496 1.29238C78.257 1.37363 78.1832 1.41797 78.0355 1.43281L77.8213 1.33672L77.0974 1.52148C76.9275 1.53613 76.6396 1.52871 76.2408 1.48457C76.1301 1.57305 75.997 1.6248 75.8345 1.63965C75.7459 1.64688 76.8906 1.58047 77.9541 1.50664C77.8433 1.59531 77.6736 1.64687 77.4373 1.66914C77.2748 1.68398 77.1344 1.66172 77.0162 1.59531C76.8537 1.66914 76.3295 1.7873 75.4506 1.96445L75.2363 1.8834L71.7799 2.41504C71.6469 2.34863 71.4918 2.32637 71.3146 2.34121C71.1299 2.35605 70.8197 2.42246 70.3914 2.54062L68.7222 3.23477L68.8478 3.4416C68.9291 3.43418 69.0472 3.39004 69.1875 3.30879L69.7785 3.36035L69.7045 3.91426C69.158 4.15801 68.8404 4.51992 68.7517 4.97793C67.932 5.33965 67.5258 5.59824 67.5258 5.75332L67.5332 5.84941L67.6588 5.84199L67.8802 5.72383L68.1388 6.03398L68.1758 6.46231C68.1904 6.59531 66.8093 9.49785 64.0472 15.1699C61.6543 20.6352 60.3988 23.6264 60.2806 24.1654C59.4609 24.3943 58.9881 24.7268 58.8478 25.1699C58.8627 25.3102 59.1062 25.4062 59.5789 25.4432L59.6011 25.6572L59.3869 26.0117L59.4238 26.4402C59.4461 26.6617 60.0443 26.8316 61.2185 26.9498C61.2111 26.876 61.2482 26.8316 61.3293 26.8242C61.3515 27.09 61.2777 27.607 61.1078 28.3752L61.2334 28.3678C61.7207 27.7031 61.9498 27.2451 61.9275 26.9941L62.031 26.9867C62.1492 26.9793 62.2748 27.1123 62.4224 27.4002C62.2748 27.4594 61.7578 28.6336 60.8715 30.9307L60.997 31.1373L61.1226 31.1301C62.2082 28.3826 62.8877 26.8611 63.1683 26.573C64.5937 26.4475 67.0605 26.1965 70.5613 25.8197L70.7828 25.6869C70.7902 25.7607 70.8345 25.7977 70.9158 25.7902L71.1447 25.7682L71.3664 25.6352C71.3736 25.709 71.4179 25.7459 71.4992 25.7385L74.1506 25.5096C74.8523 25.4506 75.1845 25.2363 75.1551 24.8744C75.1476 24.7785 75.5613 24.6676 76.3959 24.5494C76.4771 24.542 76.5953 24.5643 76.7578 24.616C76.7504 24.5494 77.1713 24.483 78.0133 24.4092C78.0355 23.966 78.1758 23.7297 78.4269 23.7076L78.4047 23.4934C78.1683 23.5154 77.9025 23.5746 77.5924 23.6779C77.0385 23.6484 76.684 23.6041 76.5361 23.5523C76.3885 23.6336 76.2777 23.6779 76.1965 23.6854L74.35 23.7445L74.1285 23.8627C74.1211 23.7961 74.0767 23.7666 73.9955 23.774L73.8922 23.7814L73.6558 23.8996C73.6484 23.833 73.4564 23.7814 73.0722 23.7297L72.8361 23.8699L72.3781 23.9068L72.3707 23.7887C74.7488 23.5303 75.9232 23.2053 75.8935 22.8213C76.0488 22.8064 76.1301 22.8803 76.1447 23.0355L76.839 22.8582L76.8168 22.6439L71.1226 22.799C71.1299 22.873 71.0929 22.9172 71.0119 22.9246L70.3176 22.8656C70.1402 22.8803 69.9926 22.932 69.8744 23.0207L69.616 22.9246C68.8996 22.9838 68.3678 23.0725 68.0133 23.1832C67.5258 23.1463 66.9867 23.1535 66.3885 23.2053L65.1107 23.316L64.5199 23.2496C64.4904 22.873 65.2215 21.0191 66.7281 17.6957C67.164 16.573 67.5627 15.8715 67.9469 15.6057C68.0281 15.5982 68.1463 15.6277 68.3088 15.6941L69.2172 15.384L69.6824 15.4578C70.4652 15.3914 71.3736 15.1699 72.415 14.7857C72.6736 14.7637 72.8656 14.7785 73.0058 14.8375L73.7002 14.675L75.7681 14.4979C76.6469 14.424 77.5996 14.2318 78.6336 13.9143L78.6115 13.7002C78.2275 13.7371 78.0281 13.6707 78.0133 13.5154C77.9912 13.2275 77.7105 13.1094 77.1713 13.1535L77.1492 12.9395L77.7179 12.777L79.2097 12.6514L79.1875 12.4373C79.1285 12.4445 78.8258 12.4373 78.2644 12.415L78.2422 12.1861L78.8183 12.1344C78.9734 12.1197 79.0398 12.0457 79.0252 11.898C78.2496 11.9203 77.8582 11.8834 77.8508 11.7799C72.4445 12.0457 69.7342 12.0975 69.7193 11.9275C69.6381 11.935 69.5273 11.9867 69.3797 12.0754L69.2392 11.8537C70.6721 8.81094 71.514 7.2748 71.7578 7.25254C71.765 7.3707 71.706 7.56269 71.573 7.82129L71.5804 7.91719L71.8093 7.89512C72.3781 6.53613 72.8582 5.83457 73.257 5.80508C74.9556 5.65723 73.0207 5.54648 76.6543 4.97793C76.8021 5.04434 76.9054 5.07383 76.9793 5.06641C78.4047 4.77852 80.3914 4.47559 82.9394 4.16543L82.9246 3.95117L81.5656 4.07676L81.5509 3.8627C81.7134 3.84785 81.8463 3.79609 81.9572 3.70762L81.9644 3.82578C82.0385 3.81836 82.1418 3.7666 82.2748 3.67793C82.5111 3.65586 82.6883 3.67793 82.8138 3.74453C83.2865 3.61895 83.6705 3.54512 83.9511 3.51543L84.8006 3.43418C85.0074 3.30137 85.1033 3.1832 85.0961 3.07246L85.0886 2.97637C84.8744 2.99844 84.6306 2.98379 84.3428 2.93203C84.3353 2.81387 84.3943 2.73262 84.5347 2.6957L86.1152 2.54805L86.839 2.36328C86.8463 2.44453 86.8834 2.47422 86.9424 2.47422C87.0162 2.4668 87.1197 2.41504 87.2525 2.32637C87.2894 2.33379 87.3338 2.33379 87.3707 2.34121C87.2748 2.54062 87.1638 2.82871 87.0531 3.20527L86.8463 3.22012C86.8316 3.07969 86.7947 2.9543 86.7281 2.84336L86.6248 2.85078C84.7045 8.19785 83.8478 10.6869 82.0754 14.7932C81.7504 15.842 81.4771 16.4254 81.2408 16.551C81.2482 16.6691 81.322 16.7281 81.4476 16.7135C81.4918 17.2305 81.3736 17.74 81.0857 18.2422C80.2658 20.6057 79.7193 21.898 79.4387 22.1344L79.6232 23.2496C79.6306 23.3678 79.5717 23.4342 79.4461 23.449L79.2541 23.4639C79.2244 23.1535 79.1136 23.0059 78.9142 23.0281L78.8109 23.0355C78.5597 23.427 78.3678 23.8773 78.2422 24.4018L78.4342 24.3869C78.6927 24.2172 78.8109 24.0178 78.7887 23.7887L79.1728 23.7518L79.3943 23.833C79.2172 24.1137 79.1359 24.3354 79.1506 24.5051L79.2541 24.6824L79.0029 25.2732L79.0103 25.3693C79.2318 25.3471 79.4756 25.4209 79.7342 25.576C79.9113 25.5613 80.1033 25.4801 80.3176 25.3396C80.539 25.3176 81.3662 25.3102 82.7918 25.3102L83.508 25.0664C84.3797 25.059 84.5199 25.0813 85.2732 25.0148L85.5834 24.9852L85.7459 24.8744L85.7533 24.9705C86.5435 24.9039 86.5953 24.9557 87.2156 25.0295L87.223 25.1256L86.7873 25.1625L86.8019 25.3471C86.9349 25.3324 87.0531 25.2953 87.1492 25.2143C87.2599 25.2068 87.3263 25.2658 87.3338 25.3988C87.1566 25.4137 86.9572 25.4578 86.7355 25.5318L86.5435 25.4652C86.2408 25.5465 86.3072 25.5688 86.1004 25.5834L85.7976 25.5244C85.8051 25.576 85.7754 25.6129 85.7238 25.6129C85.731 25.7313 85.7976 25.7902 85.9084 25.7828L86.2185 25.7533L87.8359 25.6129L88.449 25.4801C88.4564 25.5318 88.4785 25.5613 88.5303 25.5539L88.8256 25.4432L89.3797 25.3988C89.808 25.3619 89.8006 25.3324 90.731 25.1846C90.7238 25.1256 90.7459 25.1033 90.7902 25.0961L90.7976 25.1771C92.3117 24.9187 92.4076 24.9039 92.6513 24.8227L92.6734 24.867C93.0502 24.7785 92.8359 24.8006 92.9394 24.7268C92.9469 24.7932 92.9689 24.8227 93.0058 24.8227L93.2717 24.8006L93.257 24.6012L92.7178 24.5938L92.7105 24.5791C92.6883 24.5863 92.6734 24.5863 92.6513 24.5938H92.5775V24.6086C92.2156 24.6824 92.2082 24.6307 91.9718 24.6529L90.6203 24.7268L90.6129 24.6307L91.3662 24.5273L91.6394 24.5051L91.7947 24.3943L91.8019 24.4904C92.8656 24.4018 93.2422 24.6676 98.1609 23.6189C98.4267 23.5967 98.4047 23.3752 98.5746 22.9172C98.4845 22.9234 98.3945 22.9028 98.316 22.8582C97.9099 23.0133 97.6957 22.9395 96.9129 23.065C96.8463 23.0725 96.7947 23.0133 96.7724 22.8951L96.765 22.8139L97.5183 22.8359C97.6588 22.8213 97.932 22.799 98.3383 22.5701C98.3383 22.6367 98.1904 22.6736 98.2791 22.6662ZM61.9129 23.2496L61.5656 23.2791C61.551 23.1389 61.7355 22.607 62.1195 21.6986L62.3486 21.6766C62.356 21.8906 62.2156 22.415 61.9129 23.2496ZM62.3338 21.5658L62.3263 21.4697C62.3189 21.3516 62.3929 21.2703 62.5554 21.2334L62.5627 21.3293C62.5701 21.4697 62.4963 21.551 62.3338 21.5658ZM66.9498 25.133L66.9572 25.2289L66.381 25.2807L66.3736 25.1846L66.9498 25.133ZM66.2554 25.0738C66.2629 25.192 66.0857 25.325 65.7015 25.4578L64.9926 25.4062L64.7636 25.4283L64.7416 25.2143L66.2554 25.0738ZM70.9232 3.58945L70.576 3.61895L70.5687 3.50078C70.5613 3.38262 70.6277 3.30137 70.7754 3.26445L70.901 3.25703L71.1373 3.35293C71.1447 3.49336 71.0783 3.57461 70.9232 3.58945ZM76.2039 2.55547L76.3146 2.54805L76.3293 2.76211L76.0117 2.7918C76.0045 2.67363 76.0635 2.59238 76.2039 2.55547ZM74.8744 3.0207L74.35 2.96152L74.3426 2.86562C75.0295 2.80645 75.2584 2.73262 75.6795 2.61445C75.6869 2.6957 75.7607 2.7252 75.8935 2.71055L75.9084 2.92461L75.7015 2.94687C75.539 2.96152 75.3988 2.93945 75.2806 2.87305C75.1551 2.9543 75.022 3.00586 74.8744 3.0207ZM75.5318 4.93359L75.5244 4.8375L76.3736 4.75625L76.381 4.85234L75.5318 4.93359ZM76.4402 4.19492L76.4328 4.07676L76.8463 4.03984L76.8537 4.15801L76.4402 4.19492ZM76.5361 2.74746L76.4254 2.75488L76.5215 2.52578L77.4668 2.4373L77.4742 2.55547C77.2304 2.57754 76.9129 2.64395 76.5361 2.74746ZM77.0162 4.78574L77.0013 4.57168L77.415 4.53477C77.5554 4.51992 77.6293 4.58633 77.6367 4.73418L77.0162 4.78574ZM79.5199 1.37363L78.9881 1.52148L78.8922 1.52871C78.641 1.55098 78.316 1.54355 77.932 1.50664C78.6189 1.4623 79.2761 1.41055 79.5199 1.37363ZM78.9511 3.73711L78.9586 3.83301L78.2275 3.89961L78.2201 3.80352L78.9511 3.73711ZM80.1476 4.30566C80.1402 4.21719 80 4.15801 79.7119 4.12852L78.9808 4.33535L78.4195 4.35742C78.2939 4.26875 78.2275 4.20977 78.2201 4.16543L78.8701 4.20234L80.3324 3.96602L81.0783 3.99551L81.0857 4.11367C80.7164 4.15059 80.4062 4.21719 80.1476 4.30566ZM87.6736 2.36328C87.7621 2.3707 87.8213 2.3707 87.8433 2.3707C88.1019 2.11973 88.39 1.92031 88.7222 1.77988C88.4564 2.94687 88.0428 3.81094 87.4742 4.37227L87.0605 4.12109C87.4076 3.24219 87.6144 2.65879 87.6736 2.36328ZM86.4033 4.54219L86.5066 4.53477C86.3662 4.80059 86.2408 4.94082 86.1373 4.94824L86.1152 4.66758C86.1816 4.66758 86.2777 4.62324 86.4033 4.54219ZM85.5834 6.49922C85.7828 5.70156 85.9748 5.25117 86.1521 5.13301L86.1595 5.22891C86.056 5.96758 85.8935 6.35898 85.6795 6.38848L85.7164 6.85371C85.539 7.10488 85.4578 7.29688 85.4652 7.44453L85.3619 7.45195L85.3027 6.80937C85.4209 6.79473 85.517 6.69121 85.5834 6.49922ZM85.2658 7.5627C85.2732 7.67363 85.1994 7.93203 85.0517 8.33086L84.9482 8.33828L84.9261 8.05762C85.0664 7.73262 85.1845 7.57012 85.2658 7.5627ZM79.3058 24.8596L79.2984 24.7785L79.4904 24.7637L79.5125 25.0443C79.4092 25.0518 79.3353 24.9926 79.3058 24.8596ZM87.8213 25.0812C87.8138 25.0148 87.7843 24.9852 87.7179 24.9926L87.2379 25.0369L87.2304 24.9408H87.2748L88.4121 24.8449L88.4195 24.9408C88.0871 24.9557 87.8877 25.0074 87.8213 25.0812ZM87.2525 24.8449C87.2969 24.867 87.2748 24.8893 87.2525 24.9039C87.2304 24.8967 87.201 24.8744 87.2525 24.8449ZM87.3117 23.5154L86.6765 23.5672L86.6691 23.4711L87.2451 23.4195L87.7474 23.2939C87.7549 23.3529 87.7843 23.3752 87.8508 23.3678C88.449 23.2645 88.39 23.235 88.6779 23.2127C88.774 23.2053 88.8332 23.2645 88.8404 23.3826L87.3117 23.5154ZM89.5347 23.3234C89.1803 23.2865 89.158 23.257 88.907 23.2791L88.8996 23.1979L89.4681 23.1463L89.4756 23.2275C89.4166 23.235 89.6306 23.2496 89.5347 23.3234ZM89.5791 23.2201L89.5717 23.1389L89.8818 23.1094L89.8892 23.1906L89.5791 23.2201ZM90.2658 23.1609L90.2586 23.0797C90.3101 23.0725 90.384 23.0355 90.4801 22.9615C90.6351 22.9469 90.7164 23.0502 90.7312 23.1684L90.2658 23.1609ZM91.1447 23.0502L91.1373 22.9543L91.514 22.9246L91.5215 23.0207L91.1447 23.0502ZM91.6691 23.0059C91.6617 22.8951 91.706 22.8287 91.8021 22.8139L91.9275 22.9764C91.9203 22.9246 91.9424 22.8951 91.9867 22.8877L92.0828 23.065L91.6691 23.0059ZM86.0931 25.4137L86.0783 25.2289L86.0191 25.2363L86.034 25.4209L86.0931 25.4137ZM99.0695 22.0531C99.1285 22.0162 99.158 21.9793 99.0178 21.9572C98.9511 22.0311 99.0916 22.0531 98.9439 22.0605L98.9511 22.127C98.966 22.1123 99.0029 22.09 99.0324 22.068L98.9511 22.1344V22.1418L98.7961 22.3412L99.1062 22.2305H99.1433L99.1285 22.0457L99.0695 22.0531ZM99.6086 22.4742L99.5494 22.4816L99.5642 22.6662L100 22.6293C99.9926 22.5111 99.7045 22.4742 99.6086 22.4742ZM98.9365 22.1492L98.9439 22.1418V22.1344C98.9439 22.1344 98.9365 22.1418 98.9365 22.1492Z" fill="black"/>
<path d="M70.5834 8.47851L70.5908 8.59668L70.8346 8.57461C70.8271 8.50078 70.8566 8.38262 70.9084 8.23477L70.8863 8.0207C70.7828 8.02812 70.6795 8.1832 70.5834 8.47851ZM68.2496 2.86562L68.2275 2.65137L67.8803 2.68086L67.9025 2.89512L68.2496 2.86562ZM61.4771 15.5465C61.4623 15.3471 60.842 14.5717 59.616 13.2053C59.5938 12.9543 60.0148 12.5775 60.8789 12.0828L63.3457 9.93359C63.8996 9.23184 64.2244 8.09453 64.3205 6.51406L64.291 6.15215C64.1949 5.05898 63.4047 4.18027 61.9055 3.5082C61.0191 2.90996 59.4238 2.57754 57.1197 2.51836C55.2143 2.68086 52.7252 3.36035 49.6604 4.56426C48.8184 5.16992 47.8582 5.77539 46.7799 6.38105L46.7947 6.56582C46.8611 6.5584 46.9645 6.52148 47.0828 6.44023C47.2082 6.42539 47.2822 6.48457 47.2895 6.60273L47.4742 6.50664L47.5627 6.49922L47.5701 6.58047C47.5775 6.67656 46.9129 7.20078 45.5687 8.13887L45.6721 8.33086L45.5834 8.33828L45.3619 8.25703C45.3693 8.32344 45.2732 8.36777 45.0887 8.38262L45.0961 8.46387L45.3102 8.72969C45.2438 8.73711 45.1404 8.70762 45 8.65586C44.6898 8.68535 44.3869 8.84785 44.0842 9.15801L44.2098 8.61152C44.6604 6.66914 44.9705 4.94824 45.133 3.45645L45.1107 3.36035C44.8006 3.16094 44.4979 2.88027 44.2172 2.52578C44.2246 2.29687 44.2246 2.16387 44.2172 2.13437L44.1949 2.05312L44.1064 2.07539C43.1314 3.5377 41.2555 6.03398 38.4713 9.56426C36.3516 12.0754 35.2584 13.4711 35.192 13.7518C34.3279 14.6455 33.9143 15.1846 33.9586 15.3693C33.7297 15.517 33.6336 15.6646 33.6707 15.8271C33.6041 15.842 33.5598 15.8197 33.5451 15.7533C33.1758 16.3516 32.6293 16.7355 31.898 16.9055L31.1299 17.0826C31.0266 17.1049 30.9748 17.1787 30.9822 17.3043L31.0045 17.4002L31.2924 17.3338L31.3146 17.415L30.6646 17.6662L29.5125 17.932L28.907 17.9689C28.8184 18.0576 29.3869 17.9615 29.1654 18.0133L28.4121 18.1906C27.9543 18.2939 27.7031 18.257 27.6588 18.0725L27.5701 18.0945C27.585 18.1758 27.5924 18.2348 27.5775 18.2865L27.5332 18.102L26.9275 18.2422C26.8834 17.9615 26.0635 16.9424 24.4756 15.1846C24.4461 14.8449 25.0074 14.35 26.1521 13.7076L29.3869 10.8641C30.1107 9.93359 30.5391 8.4416 30.6795 6.38848L30.6352 5.9084C30.5096 4.46094 29.4609 3.29395 27.4889 2.39297C26.3221 1.60273 24.2246 1.18164 21.1965 1.11523C18.6854 1.3293 15.4062 2.22305 11.3736 3.78145C10.2658 4.58633 9.00293 5.38398 7.58496 6.17422L7.60703 6.42539C7.70313 6.41797 7.82871 6.36641 7.98379 6.27773C8.14629 6.26289 8.23496 6.33672 8.24961 6.48457L8.50078 6.34414L8.62637 6.33672L8.63359 6.45488C8.64102 6.57305 7.76211 7.25996 5.98223 8.51543L6.12266 8.73711L5.99707 8.74453L5.72383 8.64844C5.73125 8.72226 5.60566 8.77402 5.34707 8.79609L5.36191 8.9291L5.65723 9.2541C5.56133 9.26152 5.42832 9.23184 5.25859 9.17285C4.68242 9.22441 4.12109 9.63809 3.56719 10.4209L3.70762 10.6426C4.1877 10.1994 4.46816 9.97793 4.54941 9.97051L4.5791 10.3324C4.49785 10.3396 4.37227 10.3914 4.20234 10.4801L4.50527 10.9379C5.0772 10.3198 5.72483 9.77641 6.43281 9.32051C6.77988 9.40918 6.96465 9.51992 6.97187 9.63809L7.23789 9.61602C9.14336 8.20527 11.0266 7.18613 12.8951 6.5584L12.9174 6.80937C12.5701 7.32637 12.3338 7.59238 12.2082 7.60703C12.223 7.78437 12.2822 7.93945 12.393 8.07246C12.4225 8.39004 11.573 10.5318 9.85234 14.4904C5.94531 23.6928 2.66621 30.5021 0 34.9039C0.00742187 34.9926 0.0591797 35.1107 0.155078 35.2584C0.8125 35.1033 1.22598 34.941 1.40332 34.7857L1.54355 34.7711L1.56582 35.0221L1.80938 35L2.06055 34.8598C2.06797 34.9336 2.14922 34.9705 2.31914 34.9557L2.34121 35.2068C2.36328 35.4506 2.22305 35.8197 1.92754 36.3293C1.66172 36.6322 1.37363 37.2674 1.0709 38.235L1.07832 38.3529L1.32207 38.3309C2.38555 37.1418 3.19063 35.9748 3.74453 34.8375C6.84648 33.9291 9.20977 33.0353 10.8494 32.1566C12.4963 32.0162 13.7518 31.5805 14.6086 30.8641L14.5938 30.7312L13.9734 30.9158L13.833 30.9307L13.8184 30.7977C15.0295 30.6131 15.8641 30.3471 16.3295 29.9779C18.6854 28.1609 20.4652 26.876 21.6691 26.1152C24.1434 24.2984 25.7533 22.5258 26.4846 20.8051C26.6174 20.7754 26.7504 20.7459 26.898 20.709C27.2451 20.6943 27.4373 20.6869 27.4889 20.6721C27.4742 20.6057 27.5037 20.5687 27.5701 20.5539C28.124 20.4949 27.8582 20.5908 28.2127 20.5096L29.1434 20.2955L29.2984 20.2584L29.2246 20.3027C29.3279 20.3176 29.4387 20.3102 29.5643 20.2807L29.6307 20.5539L25.3988 27.282L24.4609 28.4564L24.0029 29.9926L24.0916 29.9705L24.5494 29.7785L24.4018 30.3768L24.4461 30.5539L24.5717 30.709C24.5125 30.7238 24.4904 30.7607 24.5051 30.8271L24.5273 30.9232L24.7193 30.8789C25 30.6352 25.1182 30.4137 25.0738 30.2143C25.3766 30.2658 25.576 30.2881 25.6795 30.2586L25.7016 30.3545C25.517 30.3988 25.4209 30.5465 25.4062 30.7977L25.4283 30.8936L25.5318 30.8715C27.068 29.1949 30.8346 23.4564 33.8553 19.5643C33.7592 19.1434 35.3324 18.5598 38.582 17.8064L38.6854 17.7844C38.8035 18.2939 38.5525 19.5273 37.932 21.4846C37.5332 22.6662 37.3412 23.316 37.3707 23.4195C36.8537 24.9926 36.61 25.842 36.6396 25.9748L35.4875 29.7488C34.7414 31.684 34.1729 33.7148 33.774 35.8566C33.8404 35.842 33.9439 35.8494 34.0916 35.8863L34.2541 35.7459C34.2687 35.8125 34.3131 35.8346 34.3797 35.8197L34.3131 35.5465L34.8154 35.5318C34.9631 35.4949 35.0887 35.3102 35.192 34.9705C35.1699 34.4609 35.2732 34.1877 35.5021 34.1285C35.8123 32.9174 36.0045 32.3117 36.0709 32.2895C36.359 31.0857 36.573 30.3988 36.7135 30.2289C37.1492 28.6633 37.4668 27.8582 37.6736 27.8064L37.718 27.9984L37.4004 28.8184C36.8463 31.2777 36.2852 33.2201 35.7164 34.6455L35.8789 35.3545L35.9822 35.3324C37.3561 32.3781 39.3354 26.5287 41.9129 17.7844C41.9867 17.0162 42.3561 16.418 43.0133 15.9971L42.8656 15.842L42.8434 15.7607C43.1389 15.6941 43.3457 15.5762 43.4639 15.4137C43.449 15.3471 43.1906 15.2512 42.6883 15.1182L43.9734 9.60859C44.2541 9.35742 44.4166 9.22461 44.4682 9.22461L44.4904 9.50508C44.424 9.5125 44.3205 9.54941 44.2023 9.63066L44.4461 9.97793C44.8893 9.49785 45.3693 9.08418 45.8936 8.73711C46.1596 8.81094 46.2924 8.89961 46.3072 8.98809L46.4992 8.97344C47.9615 7.90254 49.3943 7.13437 50.8051 6.66914L50.8197 6.85371C50.5613 7.24512 50.384 7.44453 50.2881 7.45195C50.3027 7.58496 50.3396 7.70312 50.4062 7.80645C50.4283 8.05019 49.7932 9.675 48.4934 12.6883C45.5244 19.6676 43.0354 24.8301 41.0117 28.1832C41.0191 28.2496 41.0635 28.3383 41.1447 28.4564C41.6396 28.3383 41.9572 28.2127 42.0828 28.0945L42.1713 28.0871L42.1861 28.2717L42.393 28.257L42.5775 28.1609C42.585 28.2127 42.6514 28.2348 42.777 28.2275L42.7918 28.427C42.8064 28.6041 42.7031 28.8848 42.4742 29.2687C42.26 29.4979 42.0385 29.9779 41.8021 30.709L41.8094 30.8051L42.0016 30.7902C42.8064 29.8893 43.4195 29.0029 43.8404 28.1314C46.1965 27.4373 47.9912 26.765 49.2318 26.1004C50.4949 25.9896 51.4475 25.6646 52.0975 25.1182L52.09 25.0221L51.61 25.1625L51.5066 25.1699L51.4992 25.0738C52.415 24.9408 53.0576 24.7342 53.4047 24.4609C55.192 23.0871 56.5436 22.1049 57.4594 21.5287C60.3102 19.4535 61.6396 17.4594 61.4771 15.5465ZM60.9896 15.6721L61.0561 16.418C60.9676 16.6027 60.8715 16.6986 60.7828 16.7061L60.6721 15.4357C60.8789 15.5096 60.9822 15.5834 60.9896 15.6721ZM5.06641 9.66035L4.94102 9.66758L4.91875 9.43867L5.42832 9.39433L5.43574 9.5125C5.35449 9.51992 5.22891 9.56426 5.06641 9.66035ZM2.57754 34.5568C2.28223 34.4238 2.01621 34.3723 1.7873 34.3943L1.75781 34.0324C1.74297 33.8922 1.82422 33.7961 2.00156 33.7592C2.16387 33.7445 2.25996 33.8627 2.2748 34.099C2.70312 33.5746 2.93945 33.3088 2.98379 33.3014L3.25703 33.4121C3.16836 34.1506 2.93945 34.5273 2.57754 34.5568ZM29.1729 6.73555C29.0473 6.75039 28.7961 6.35898 28.4344 5.5834L28.4121 5.35449C28.6484 5.33242 28.8922 5.71641 29.1506 6.50664L29.1729 6.73555ZM28.8184 3.98086L28.7148 4.22461L25.1033 2.71777C27.5111 2.79902 28.752 3.22012 28.8184 3.98086ZM13.5672 17.0754L13.0576 17.1197L13.0355 16.8906L13.5451 16.8463L13.5672 17.0754ZM13.1535 9.20976L13.2791 9.20234L13.3088 9.56426C13.1906 9.57168 13.0355 9.74883 12.8434 10.0887L12.8213 9.8375C13.0502 9.56426 13.1684 9.35742 13.1535 9.20976ZM12.0826 11.7355L12.127 12.2156L12.0016 12.223L11.9572 11.743L12.0826 11.7355ZM11.5215 12.6367L11.7652 12.6145C11.743 13.0133 11.6322 13.2275 11.4328 13.2422L11.3072 13.2496C11.4623 12.9838 11.5361 12.777 11.5215 12.6367ZM11.1004 13.8922L11.2408 13.8773L11.248 13.9955L11.0191 14.3797L10.7754 14.4018L10.7682 14.2836C11.0119 14.2615 11.1227 14.1359 11.1004 13.8922ZM10.6869 15.0223L10.6131 15.6277L10.4875 15.6352L10.4357 15.0369L10.6869 15.0223ZM6.54355 26.8021C6.38105 27.6293 6.20391 28.0502 6.01914 28.065L6.01191 27.9469C5.96758 27.5406 6.14473 27.1566 6.54355 26.8021ZM5.78281 28.449L5.79023 28.5672C5.80508 28.7297 5.73125 28.8258 5.56875 28.833L5.56133 28.7148C5.54648 28.5746 5.62031 28.4859 5.78281 28.449ZM5.56133 31.8686L5.94531 31.8316L5.96016 31.9646C5.86406 31.9719 5.73848 32.0236 5.5834 32.1123L5.33965 32.1344C5.325 32.0088 5.40625 31.9129 5.56133 31.8686ZM16.4918 28.4934C14.3354 29.5568 13.065 30.2807 12.6883 30.6572C10.3545 31.4697 9.19492 31.9719 9.21719 32.1713C7.1418 32.9912 5.77539 33.5967 5.11816 33.9734C4.96309 33.9881 4.7416 33.9291 4.44609 33.7961C4.40918 33.3752 4.60117 33.0354 5.00742 32.7621C5.36934 32.7326 5.71641 32.7844 6.04883 32.9246C6.43281 32.7252 7.10488 32.5037 8.05762 32.2674L8.03555 32.0162L7.26738 32.0826C7.36328 31.9498 8.10195 31.6027 9.49043 31.0414L9.87441 31.0045L9.88184 31.1227C9.22461 31.1816 8.86269 31.3736 8.78144 31.7209C8.79609 31.876 8.88477 31.9424 9.04727 31.9275C9.54219 31.6174 9.78574 31.4328 9.77852 31.3811C10.7164 31.2039 13.3088 29.8449 17.5555 27.3117L17.5775 27.5406C17.585 27.6514 17.223 27.9615 16.4918 28.4934ZM9.97793 30.6352C10.5982 30.5834 11.1301 30.3324 11.573 29.8967C11.7504 29.8818 11.8465 29.9482 11.8537 30.1033C11.551 30.133 10.9676 30.384 10.1182 30.8715L9.99258 30.8789L9.97793 30.6352ZM20.4875 22.5627L17.2305 25.1477C14.808 26.7355 13.5082 27.5332 13.316 27.548C9.46094 29.6676 7.06055 30.7682 6.13008 30.8494L5.98965 30.8641C6.10781 30.4283 7.82129 26.9203 11.1447 20.3176C12.607 20.192 14.9113 19.5125 18.0502 18.2719L18.8184 18.2053C20.4062 18.065 21.5953 18.3752 22.3781 19.1137L22.4225 19.5937C21.8391 21.2852 21.1891 22.2748 20.4875 22.5627ZM14.1211 18.9809L14.6455 18.9365L14.6529 19.0547L14.1285 19.099L14.1211 18.9809ZM21.4846 17.7326L21.8686 17.6957C22.223 17.8656 22.4076 18.0133 22.4225 18.1463L22.4299 18.2645C22.09 18.2939 21.7725 18.1166 21.4846 17.7326ZM22.5258 11.8021C22.1861 12.2082 21.2555 12.9025 19.7342 13.8773C19.2318 13.9217 17.3633 14.6455 14.1285 16.0635C13.9668 15.9896 13.7886 15.959 13.6115 15.9748L13.5895 15.7459C13.5525 15.2807 13.7592 14.6973 14.2172 13.9883C14.4682 12.6588 14.7416 11.898 15.0443 11.7135L17.74 5.65C17.7105 5.27324 18.2865 4.98516 19.4682 4.78574L19.8523 4.74883L19.8818 5.09609C21.0414 4.91875 21.765 4.81543 22.0457 4.79316C24.1877 4.60859 25.3027 5.04434 25.3914 6.08574L25.6352 6.06348L25.5834 5.45059L25.8494 5.42832C26.4771 5.77539 26.8168 6.19648 26.8611 6.69121C26.8906 7.03105 26.7061 7.45195 26.3146 7.9543C26.1521 7.96895 26.0561 7.85078 26.0414 7.61445L25.7754 7.63672L25.7164 8.37519C24.6307 10 23.8404 10.8346 23.3531 10.8789C22.91 11.4918 22.6367 11.7947 22.5258 11.8021ZM24.1803 16.0488C23.9586 15.901 23.7814 15.8346 23.6484 15.842L23.6189 15.4801L23.8627 15.4578L24.4018 15.7756C24.424 15.9453 24.35 16.034 24.1803 16.0488ZM25.8938 18.0797C26.1301 18.1758 26.2703 18.2791 26.2998 18.3752L26.1816 18.4047L26.1891 18.4121C26.167 18.4121 26.1373 18.4195 26.1152 18.427L25.9379 18.5672L25.8938 18.0797ZM26.0561 19.099L26.034 19.0029L26.3441 18.9291L26.3664 19.0252L26.0561 19.099ZM26.8021 19.9336C27.1197 19.8818 27.2748 19.8598 27.8656 19.7268L27.8877 19.8227L26.7652 20.0812C26.7799 20.0295 26.7947 19.9779 26.8021 19.9336ZM27.8951 20.3988C27.4225 20.4432 27.5258 20.384 26.7725 20.5539L26.7504 20.4578L27.6957 20.1551L28.1463 20.0518L28.1906 20.2289C27.9838 20.2732 28.1314 20.2732 27.8951 20.3988ZM28.8922 20.1625C28.7814 20.192 28.6928 20.1404 28.641 20.0148L28.9291 19.9482C29.0547 19.9187 29.1359 19.9705 29.1654 20.0961L28.8922 20.1625ZM31.5953 17.2525L31.573 17.1566L32.0385 17.0457L32.0828 17.223L31.5953 17.2525ZM34.483 34.9631C34.5125 34.8301 34.5199 34.7342 34.5051 34.6676L34.6086 34.6455C34.7342 34.616 34.808 34.6603 34.8375 34.7785L34.8598 34.8744L34.483 34.9631ZM36.5066 18.0133L36.2998 17.9764C35.9676 18.1094 35.6869 18.2053 35.4578 18.257L35.2658 18.3014C35.1551 18.3309 35.0664 18.2865 35.0221 18.1684L36.3736 17.8582L36.8168 17.6514L36.9646 17.8213C36.7504 17.8656 36.5953 17.932 36.5066 18.0133ZM37.548 17.6809L37.5258 17.585C37.5924 17.5701 37.6809 17.5186 37.777 17.4225L38.7371 17.2008L38.7592 17.2969C38.2496 17.4225 37.8434 17.548 37.548 17.6809ZM37.6957 15.7385C37.6293 15.7533 37.5406 15.8123 37.4299 15.901C37.415 15.8346 37.2822 15.8346 37.0311 15.8936C36.9867 15.709 37.6957 15.4506 39.1654 15.1107L39.3723 15.0664L39.4166 15.2437C38.3826 15.5465 37.8064 15.7164 37.6957 15.7385ZM40.2807 12.9469C40.1773 14.1211 39.7637 14.7857 39.0324 14.9557L39.0104 14.8598L38.3604 15.1107L38.0725 15.1773C37.9246 15.2143 37.7918 15.2068 37.6736 15.1699L37.6145 14.9113C37.5924 14.8154 38.5303 13.5154 40.4357 11.0191L40.6572 11.0561C40.7385 11.3959 40.6131 12.0236 40.2807 12.9469ZM44.8523 9.03242L44.7637 9.03984L44.7488 8.85527L45.133 8.81836L45.1402 8.91426C45.0738 8.9291 44.9779 8.96601 44.8523 9.03242ZM42.9689 27.9469C42.7475 27.8434 42.548 27.799 42.3781 27.8139L42.3561 27.5332C42.3486 27.4373 42.4076 27.3707 42.5332 27.3338C42.6588 27.3191 42.7326 27.4076 42.7475 27.5996C43.065 27.1936 43.2422 26.9867 43.2791 26.9867L43.4785 27.068C43.4047 27.6293 43.235 27.9246 42.9689 27.9469ZM63.1609 6.82422C63.065 6.83164 62.8803 6.53613 62.5924 5.93789L62.5775 5.75332C62.7621 5.73848 62.9543 6.02656 63.1463 6.61738L63.1609 6.82422ZM62.8951 4.71191L62.8064 4.90391L60.0738 3.75918C61.898 3.81836 62.8434 4.13594 62.8951 4.71191ZM51.3072 14.6603L50.9232 14.6973L50.9084 14.5125L51.2924 14.4756L51.3072 14.6603ZM50.9896 8.68535L51.093 8.67793L51.1152 8.95859C51.0191 8.96601 50.901 9.09902 50.7607 9.35742L50.7459 9.17285C50.9158 8.95859 50.9971 8.79609 50.9896 8.68535ZM50.1846 10.6057L50.2143 10.9676L50.1107 10.975L50.0812 10.6131L50.1846 10.6057ZM49.7488 11.2924L49.9408 11.2777C49.9188 11.5879 49.8375 11.7504 49.6973 11.765L49.5938 11.7725C49.7045 11.5658 49.7563 11.4033 49.7488 11.2924ZM49.4387 12.2379L49.5273 12.2305L49.5348 12.3264L49.3648 12.6219L49.1729 12.6367L49.1654 12.5406C49.3648 12.5258 49.4535 12.4225 49.4387 12.2379ZM49.1285 13.0945L49.0621 13.5672L48.9734 13.5746L48.9365 13.1094L49.1285 13.0945ZM45.9748 22.0531C45.8494 22.6736 45.7164 22.9912 45.576 23.0059L45.5687 22.9246C45.5465 22.6145 45.6795 22.3189 45.9748 22.0531ZM45.3914 23.3014L45.3988 23.3826C45.4137 23.5154 45.3545 23.5893 45.2215 23.5967L45.2143 23.5008C45.2068 23.4047 45.2658 23.3383 45.3914 23.3014ZM45.2289 25.901L45.5244 25.8789L45.5316 25.9748C45.4652 25.9822 45.3619 26.0191 45.2437 26.0857L45.0518 26.1004C45.0443 25.9971 45.1033 25.9307 45.2289 25.901ZM53.5229 23.3383C51.898 24.1434 50.9305 24.6898 50.6277 24.9705C48.8553 25.5908 47.9764 25.9748 47.9912 26.1299C46.418 26.7578 45.384 27.2082 44.8967 27.4963C44.7785 27.5037 44.6086 27.4594 44.3869 27.3561C44.3574 27.0385 44.5051 26.7799 44.8154 26.5879C45.0961 26.5658 45.3619 26.6027 45.6057 26.7061C45.901 26.5584 46.4105 26.3959 47.1344 26.2111L47.1197 26.0266L46.5215 26.0783C46.5953 25.9748 47.1639 25.709 48.2201 25.2807L48.5154 25.2584L48.5229 25.3396C48.0207 25.384 47.74 25.5318 47.6809 25.7977C47.6883 25.9158 47.7621 25.9748 47.8877 25.9602C48.257 25.7164 48.4342 25.576 48.4342 25.5318C49.1434 25.4062 51.1078 24.3723 54.3354 22.4373L54.35 22.6219C54.35 22.6957 54.0768 22.932 53.5229 23.3383ZM48.5746 24.9631C49.0547 24.9187 49.4609 24.7342 49.8006 24.4092C49.9262 24.4018 50 24.4535 50.0074 24.5717C49.7857 24.5937 49.35 24.7785 48.6928 25.133L48.5895 25.1402L48.5746 24.9631ZM56.5658 18.8258L54.1064 20.8051C52.2674 22.0088 51.2703 22.6145 51.1152 22.6293C48.1906 24.2393 46.3736 25.0738 45.6572 25.133L45.5539 25.1402C45.6426 24.808 46.9498 22.1418 49.4756 17.1344C50.576 17.0385 52.3191 16.5141 54.7119 15.5687L55.3102 15.517C56.5141 15.4137 57.415 15.65 58.0059 16.2186L58.0355 16.5805C57.585 17.8508 57.0975 18.5967 56.5658 18.8258ZM51.7355 16.1078L52.1197 16.0709L52.127 16.167L51.743 16.2039L51.7355 16.1078ZM57.3264 15.1551L57.6219 15.133C57.8951 15.2658 58.0355 15.384 58.0428 15.4801L58.0502 15.5613C57.7918 15.5834 57.548 15.4506 57.3264 15.1551ZM58.102 10.6572C57.8434 10.9676 57.1418 11.4992 55.9971 12.2379C55.6131 12.2748 54.1949 12.8213 51.743 13.8848C51.6248 13.8404 51.4918 13.8258 51.3516 13.833L51.3367 13.6484C51.3072 13.2939 51.4623 12.8508 51.8021 12.3117C51.9941 11.2924 52.2082 10.7238 52.4299 10.5908L54.4904 5.98223C54.4682 5.70898 54.9039 5.4875 55.7902 5.31758L56.0857 5.29551L56.1078 5.57598C56.9793 5.43574 57.5258 5.35449 57.7475 5.33242C59.3723 5.19199 60.2215 5.51699 60.2881 6.31465L60.4801 6.2998L60.4432 5.85664L60.6352 5.84199C61.1078 6.10039 61.359 6.41055 61.3885 6.77988C61.4105 7.0457 61.2777 7.3707 60.9971 7.74746C60.8715 7.76211 60.7977 7.67363 60.7828 7.48144L60.5908 7.49629L60.5318 8.05019C59.7119 9.29844 59.1137 9.94082 58.7371 9.97051C58.4047 10.4209 58.1978 10.65 58.102 10.6572ZM58.966 13.7297L58.9439 13.449L59.1359 13.4344L59.5494 13.6854C59.5568 13.8035 59.4978 13.8701 59.3723 13.8848C59.1949 13.774 59.0621 13.7223 58.966 13.7297ZM24.5863 31.6691L24.3943 31.7135L24.2318 31.8537C24.2615 31.9719 24.3354 32.0162 24.4609 31.9867C24.5863 31.9572 24.6381 31.8834 24.6086 31.7652L24.5863 31.6691ZM23.8553 30.2143L23.8773 30.3102C24.0029 30.2807 24.0547 30.2068 24.0252 30.0887L24.0029 29.9926C23.8848 30.0221 23.833 30.0961 23.8553 30.2143ZM29.0842 20.3914L29.2246 20.3027C29.1949 20.3027 29.1729 20.2953 29.1506 20.2881C29.099 20.3027 29.0768 20.3396 29.0842 20.3914ZM29.0547 17.8434L29.2762 17.7918L29.2318 17.5996L29.0104 17.6514L29.0547 17.8434ZM81.2482 25.3027L80.7459 25.2437L80.6572 25.4357L80.6646 25.5318L83.6559 25.2807L83.641 25.0961L81.2482 25.3027ZM83.9809 25.0738L83.9955 25.2584H84.025L84.0104 25.0738H83.9809ZM96.5287 23.4342L96.5436 23.6189L96.8686 23.6779L96.8537 23.4934L96.5287 23.4342ZM96.0709 23.4711C93.8258 23.9734 93.5451 23.8848 93.0725 23.9217L93.0871 24.1062L93.2939 24.0916L93.4047 24.0842L93.3752 24.0621L93.6189 23.966C95.842 23.7223 96.1004 23.8109 96.0783 23.5598L96.0709 23.4711ZM82.5924 20.2068L82.393 20.1404C82.2305 20.576 82.1492 20.8346 82.1566 20.9084L82.1639 20.9896C82.3191 20.9822 82.4594 20.7164 82.5924 20.2068ZM79.8893 18.752L79.8818 18.6559L79.7785 18.6633L79.5938 18.7814L79.6973 18.9586C79.8375 18.9439 79.9039 18.8773 79.8893 18.752ZM85.7607 24.8227L85.7459 24.6381L85.6869 24.6455L85.7016 24.8301L85.7607 24.8227ZM97.9469 22.0754L98.0871 22.0605C98.1684 22.0531 98.2053 21.9867 98.1979 21.8686L98.1166 21.6912C97.607 21.7355 97.3707 21.7578 96.9572 21.9867L96.9498 21.8906L96.3367 21.9498C96.3221 21.765 96.2703 21.6691 96.1891 21.6766L95.8715 21.7061C95.5022 21.7355 95.325 21.7209 95.1402 21.8611C95.133 21.7947 95.1107 21.765 95.0738 21.765L94.7193 21.7947L94.5125 21.9129C94.5051 21.8463 94.483 21.8168 94.4461 21.8168L94.3205 21.9275L94.3131 21.8316L93.8184 21.7947L93.7002 21.8021L93.7148 21.9867L93.966 22.0531L94.2023 22.0385C94.2836 22.09 94.3723 22.1049 94.4756 22.0975L94.6824 21.9941L94.6898 22.0754C93.5303 22.3633 93.5377 22.3117 92.74 22.4445C92.6514 22.3855 92.585 22.3561 92.5406 22.3633L92.5258 22.3781C92.4373 22.3707 92.3856 22.3117 92.3781 22.2156L92.7918 22.1639C92.8213 22.1639 92.8434 22.1936 93.0723 22.2379C93.4047 22.0754 93.4195 22.0088 93.5967 21.9941L93.582 21.8094C92.4445 22.0311 92.9025 21.8832 91.4771 22.0088L91.4105 22.0162L91.3959 21.8316C93.2275 21.61 92.6144 21.7355 93.2422 21.5584C93.2496 21.6248 93.2719 21.6543 93.3088 21.6543C93.3761 21.5856 93.4644 21.5414 93.5598 21.5287L93.6854 21.5215C94.3279 21.4697 94.5422 21.5953 95.8125 21.2408L95.8197 21.3221L96.0266 21.2186L96.2186 21.2039C96.2039 21.0191 96.4846 20.9896 96.5805 20.9822L96.5658 20.7828C94.3354 21.2334 93.7518 21.1078 93.1314 21.2852L93.124 21.2039C92.5406 21.3072 92.5186 21.2629 92.3707 21.2703C92.3264 21.2777 92.26 21.3146 92.1861 21.3885C92.1787 21.3221 92.1566 21.2924 92.1123 21.2924C92.09 21.2924 92.0828 21.2998 92.0754 21.2998L90.1846 21.61C90.1773 21.5584 90.1551 21.5287 90.1107 21.5361C89.1285 21.743 89.3943 21.7799 88.0797 21.898C88.0207 21.9055 87.9395 21.935 87.8361 22.0014C87.8287 21.9498 87.799 21.9203 87.7326 21.9275L86.9275 21.9941L86.3885 22.127C86.3811 22.0754 86.3516 22.0457 86.2852 22.0531C85.9822 22.1344 85.7164 22.1861 85.5022 22.2008H85.4875C85.3545 22.2156 85.5539 22.1639 85.4506 22.1197L85.2881 22.2156C85.0518 22.2379 85.1773 22.2008 84.3648 22.2082C82.9395 22.3855 83.0945 22.4076 82.9395 22.415L82.4076 22.3781C82.415 22.4299 82.3855 22.4668 82.3264 22.4668C81.7209 22.3855 81.4107 22.2895 81.4033 22.1787C81.4846 21.6027 81.6248 21.3072 81.8242 21.2924L81.9277 21.2852L81.8391 21.4771L81.9424 21.4697C82.1344 21.3662 82.223 21.2703 82.2156 21.1816L82.201 20.9822L82.0088 20.9971L81.9941 20.8123C81.9793 20.6721 82.0016 20.5465 82.0531 20.4432L82.4889 19.7414L82.5037 19.9262L82.7105 19.9113L82.6957 19.7268L82.5775 19.5568C82.7326 19.4238 82.8508 19.35 82.9469 19.3426L82.9395 19.2467L82.6588 19.2687L82.6367 18.9881C83.1981 17.8213 83.4639 17.1418 83.449 16.9498L83.6484 17.0311C83.774 17.0236 83.833 16.9498 83.8258 16.8168L83.6336 16.8316L83.6264 16.7504C83.6127 16.6155 83.6383 16.4796 83.7002 16.359C84.0029 16.0414 84.1434 15.7238 84.1137 15.3914C84.1729 15.384 84.2023 15.4137 84.2098 15.4801C84.4684 15.3324 84.6678 14.9408 84.8154 14.291C85.2732 13.4639 85.9232 11.8094 86.7725 9.33535C88.3975 4.96309 88.3309 4.49785 88.5598 3.46387L88.3678 3.47852C88.3826 3.61152 88.3531 3.73711 88.2939 3.85527C88.1609 3.80352 88.0576 3.77402 87.9838 3.78145L87.9764 3.7002C87.9469 3.32344 88.102 2.87305 88.4564 2.34121L88.5451 2.33379L88.7076 2.96895L88.8996 2.9543C88.8922 2.90996 88.9439 2.65879 89.0473 2.19355C89.0398 2.09746 88.966 2.03848 88.8184 2.03105L88.6338 2.14922C88.6189 2.01621 88.6264 1.66914 88.6484 1.11523L88.5523 1.12266C88.39 0.960156 88.3088 0.827148 88.3014 0.716406L87.2451 0.819727C87.2379 0.745898 87.201 0.635156 87.127 0.494727C87.1197 0.398828 87.3561 0.302734 87.8434 0.206836L88.0576 0.288086L88.257 0.169922C88.2645 0.236328 88.3014 0.26582 88.3752 0.258398L88.5746 0.140234C88.582 0.206836 88.6189 0.236328 88.6928 0.228906L88.7889 0.221484L88.774 0.00742187C88.6264 0.0220703 88.235 0.0220703 87.6145 0L87.415 0.133008L87.4076 0.0148437C82.452 0.420898 79.6381 0.65 78.966 0.716406C78.8773 0.723828 78.5303 0.716406 77.9174 0.701562C77.9246 0.782812 77.8508 0.827148 77.7031 0.841992L77.4889 0.745898L76.7652 0.930664C76.5953 0.945312 76.3072 0.937891 75.9084 0.893555C75.7977 0.982226 75.6646 1.03398 75.5022 1.04883C75.4137 1.05605 76.5584 0.989648 77.6219 0.91582C77.5111 1.00449 77.3412 1.05605 77.1049 1.07832C76.9424 1.09297 76.8021 1.0709 76.684 1.00449C76.5215 1.07832 75.9971 1.19648 75.1182 1.37363L74.9041 1.29238L71.4477 1.82422C71.3147 1.75781 71.1596 1.73555 70.9822 1.75039C70.7977 1.76504 70.4875 1.83164 70.0592 1.9498L68.39 2.64394L68.5154 2.85078C68.5967 2.84336 68.7148 2.79902 68.8553 2.71777L69.4461 2.76953L69.3723 3.32344C68.8258 3.56719 68.5082 3.9291 68.4195 4.38691C67.5998 4.74883 67.1936 5.00742 67.1936 5.1625L67.201 5.2584L67.3264 5.25117L67.548 5.13301L67.8064 5.44316L67.8434 5.87148C67.8582 6.00449 66.4771 8.90683 63.7148 14.5791C61.3221 20.0443 60.0664 23.0355 59.9482 23.5746C59.1285 23.8035 58.6559 24.1359 58.5154 24.5791C58.5303 24.7193 58.774 24.8154 59.2467 24.8523L59.2687 25.0664L59.0547 25.4209L59.0916 25.8494C59.1137 26.0709 59.7119 26.2408 60.8863 26.359C60.8789 26.2852 60.9158 26.2408 60.9971 26.2334C61.0191 26.4992 60.9453 27.0162 60.7754 27.7844L60.901 27.777C61.3885 27.1123 61.6174 26.6543 61.5953 26.4033L61.6986 26.3959C61.8168 26.3885 61.9424 26.5215 62.09 26.8094C61.9424 26.8686 61.4254 28.0428 60.5391 30.3396L60.6646 30.5465L60.7902 30.5391C61.876 27.7918 62.5555 26.2703 62.8359 25.9822C64.2615 25.8566 66.7281 25.6057 70.2289 25.2289L70.4506 25.0959C70.4578 25.1699 70.5021 25.2068 70.5834 25.1994L70.8125 25.1771L71.034 25.0443C71.0414 25.1182 71.0857 25.1551 71.167 25.1477L73.8184 24.9187C74.5199 24.8596 74.8523 24.6455 74.8227 24.2836C74.8154 24.1875 75.2289 24.0768 76.0635 23.9586C76.1447 23.9512 76.2629 23.9734 76.4254 24.025C76.418 23.9586 76.8391 23.8922 77.6811 23.8184C77.7031 23.3752 77.8434 23.1389 78.0945 23.1166L78.0725 22.9025C77.8361 22.9246 77.5701 22.9838 77.26 23.0871C76.7061 23.0576 76.3516 23.0133 76.2039 22.9615C76.0561 23.0428 75.9453 23.0871 75.8641 23.0945L74.0178 23.1535L73.7961 23.2717C73.7887 23.2053 73.7445 23.1758 73.6633 23.1832L73.5598 23.1904L73.3234 23.3088C73.316 23.2422 73.124 23.1904 72.74 23.1389L72.5037 23.2791L72.0459 23.316L72.0385 23.1979C74.4166 22.9395 75.5908 22.6145 75.5613 22.2305C75.7164 22.2156 75.7977 22.2895 75.8123 22.4445L76.5066 22.2674L76.4846 22.0531L70.7902 22.2082C70.7977 22.282 70.7607 22.3264 70.6795 22.3338L69.9852 22.2748C69.808 22.2895 69.6604 22.3412 69.5422 22.4299L69.2836 22.3338C68.5672 22.393 68.0354 22.4814 67.6809 22.5924C67.1936 22.5555 66.6543 22.5627 66.0561 22.6145L64.7785 22.7252L64.1877 22.6588C64.158 22.282 64.8893 20.4283 66.3959 17.1049C66.8316 15.9822 67.2305 15.2807 67.6145 15.0148C67.6957 15.0074 67.8139 15.0369 67.9764 15.1033L68.8848 14.7932L69.35 14.867C70.133 14.8006 71.0414 14.5791 72.0828 14.1949C72.3412 14.1729 72.5332 14.1877 72.6736 14.2467L73.3678 14.0842L75.4357 13.9068C76.3146 13.833 77.2674 13.641 78.3014 13.3234L78.2791 13.1094C77.8951 13.1463 77.6957 13.0797 77.6811 12.9246C77.6588 12.6367 77.3781 12.5184 76.8391 12.5627L76.8168 12.3486L77.3855 12.1861L78.8773 12.0605L78.8553 11.8465C78.7961 11.8537 78.4934 11.8465 77.932 11.8242L77.91 11.5953L78.4859 11.5436C78.641 11.5289 78.7076 11.4549 78.6928 11.3072C77.9174 11.3293 77.5258 11.2924 77.5186 11.1891C72.1123 11.4549 69.4018 11.5066 69.3871 11.3367C69.3059 11.3441 69.1949 11.3959 69.0473 11.4846L68.907 11.2629C70.3396 8.22012 71.1816 6.68379 71.4254 6.66172C71.4328 6.77988 71.3736 6.97187 71.248 7.23047L71.2555 7.32637L71.4846 7.3043C72.0531 5.94531 72.5332 5.24375 72.932 5.21426C74.6307 5.06641 72.6957 4.95566 76.3295 4.38691C76.4771 4.45352 76.5805 4.48301 76.6543 4.47559C78.0797 4.1875 80.0664 3.88477 82.6144 3.57461L82.5996 3.36035L81.2408 3.48594L81.226 3.27168C81.3885 3.25703 81.5215 3.20527 81.6322 3.1166L81.6396 3.23477C81.7135 3.22754 81.8168 3.17578 81.9498 3.08711C82.1861 3.06504 82.3633 3.08711 82.4889 3.15352C82.9615 3.02812 83.3457 2.9541 83.6264 2.92461L84.4756 2.84336C84.6824 2.71055 84.7785 2.59238 84.7711 2.48145L84.7637 2.38555C84.5494 2.40762 84.3059 2.39297 84.0178 2.34121C84.0104 2.22305 84.0693 2.1418 84.2098 2.10488L85.7902 1.95723L86.5141 1.77246C86.5215 1.85371 86.5584 1.8832 86.6174 1.8832C86.6912 1.87598 86.7947 1.82422 86.9275 1.73555C86.9646 1.74297 87.0088 1.74297 87.0457 1.75039C86.9498 1.9498 86.8391 2.23789 86.7281 2.61445L86.5215 2.6293C86.5066 2.48887 86.4697 2.36328 86.4033 2.25254L86.2998 2.25996C84.3797 7.60703 83.5229 10.0961 81.7504 14.2023C81.4254 15.2512 81.1521 15.8346 80.9158 15.9602C80.9232 16.0783 80.9971 16.1373 81.1227 16.1227C81.167 16.6396 81.0488 17.1492 80.7607 17.6514C79.9408 20.0148 79.3943 21.3072 79.1137 21.5436L79.2984 22.6588C79.3057 22.777 79.2467 22.8434 79.1211 22.8582L78.9291 22.873C78.8996 22.5627 78.7887 22.415 78.5895 22.4373L78.4859 22.4445C78.2348 22.8359 78.0428 23.2865 77.9174 23.8109L78.1094 23.7961C78.3678 23.6264 78.4859 23.427 78.4639 23.1979L78.8478 23.1609L79.0693 23.2422C78.8922 23.5229 78.8109 23.7445 78.8258 23.9143L78.9291 24.0916L78.6779 24.6824L78.6853 24.7785C78.907 24.7562 79.1506 24.8301 79.4092 24.9852C79.5863 24.9705 79.7785 24.8893 79.9926 24.7488C80.2143 24.7268 81.0414 24.7193 82.4668 24.7193L83.1832 24.4756C84.0547 24.4682 84.1949 24.4904 84.9482 24.4238L85.2584 24.3943L85.4209 24.2836L85.4283 24.3797C86.2186 24.3131 86.2703 24.3648 86.8906 24.4387L86.898 24.5348L86.4623 24.5717L86.4771 24.7562C86.61 24.7414 86.7281 24.7045 86.8242 24.6232C86.935 24.616 87.0014 24.675 87.0088 24.808C86.8316 24.8227 86.6322 24.867 86.4105 24.9408L86.2186 24.8744C85.9158 24.9557 85.9822 24.9777 85.7754 24.9926L85.4727 24.9336C85.4801 24.9852 85.4506 25.0221 85.3988 25.0221C85.4062 25.1402 85.4727 25.1994 85.5834 25.192L85.8936 25.1625L87.5111 25.0221L88.124 24.8893C88.1314 24.9408 88.1535 24.9705 88.2053 24.9631L88.5008 24.8523L89.0547 24.808C89.483 24.7711 89.4756 24.7414 90.4062 24.5937C90.3988 24.5348 90.4209 24.5125 90.4652 24.5051L90.4727 24.5863C91.9867 24.3279 92.0826 24.3131 92.3264 24.2318L92.3486 24.2762C92.7252 24.1875 92.5111 24.2098 92.6145 24.1359C92.6219 24.2023 92.6439 24.2318 92.6809 24.2318L92.9469 24.2098L92.932 24.0103L92.393 24.0029L92.3856 23.9881C92.3633 23.9955 92.3486 23.9955 92.3264 24.0029H92.2525V24.0178C91.8906 24.0916 91.8832 24.0398 91.6469 24.0621L90.2953 24.1359L90.2881 24.0398L91.0414 23.9365L91.3147 23.9143L91.4697 23.8035L91.4771 23.8996C92.5406 23.8109 92.9172 24.0768 97.8359 23.0281C98.102 23.0059 98.0797 22.7844 98.2496 22.3264C98.1595 22.3326 98.0697 22.312 97.9912 22.2674C97.585 22.4225 97.3707 22.3486 96.5879 22.4742C96.5215 22.4816 96.4697 22.4225 96.4475 22.3043L96.44 22.223L97.1934 22.2451C97.3338 22.2305 97.607 22.2082 98.0133 21.9793C98.0133 22.0457 97.8582 22.0826 97.9467 22.0754H97.9469ZM61.5805 22.6588L61.2334 22.6883C61.2186 22.548 61.4033 22.0162 61.7873 21.1078L62.0162 21.0857C62.0236 21.2998 61.8832 21.8242 61.5805 22.6588ZM62.0016 20.9748L61.9941 20.8789C61.9867 20.7607 62.0605 20.6795 62.223 20.6426L62.2305 20.7385C62.2379 20.8789 62.1639 20.9602 62.0016 20.9748ZM66.6174 24.542L66.6248 24.6381L66.0488 24.6898L66.0414 24.5937L66.6174 24.542ZM65.9232 24.483C65.9307 24.6012 65.7533 24.7342 65.3693 24.867L64.6602 24.8154L64.4313 24.8375L64.4092 24.6232L65.9232 24.483ZM70.5908 2.99844L70.2438 3.02812L70.2363 2.90996C70.2289 2.7918 70.2955 2.71055 70.4432 2.67363L70.5688 2.66621L70.8051 2.76211C70.8123 2.90254 70.7459 2.98379 70.5908 2.99844ZM75.8715 1.96445L75.9822 1.95723L75.9971 2.17129L75.6795 2.20078C75.6721 2.08262 75.7311 2.00156 75.8715 1.96445ZM74.542 2.42988L74.0178 2.3707L74.0104 2.2748C74.6973 2.21562 74.9262 2.1418 75.3471 2.02363C75.3545 2.10488 75.4283 2.13437 75.5613 2.11973L75.576 2.33379L75.3693 2.35605C75.2068 2.3707 75.0664 2.34863 74.9482 2.28203C74.8227 2.36328 74.6898 2.41504 74.542 2.42988ZM75.1994 4.34277L75.192 4.24668L76.0414 4.16543L76.0488 4.26152L75.1994 4.34277ZM76.1078 3.6041L76.1004 3.48594L76.5141 3.44902L76.5215 3.56719L76.1078 3.6041ZM76.2039 2.15664L76.093 2.16387L76.1891 1.93496L77.1344 1.84629L77.1418 1.96445C76.898 1.98672 76.5805 2.05312 76.2039 2.15664ZM76.684 4.19492L76.6691 3.98086L77.0828 3.94395C77.223 3.9291 77.2969 3.99551 77.3043 4.14336L76.684 4.19492ZM79.1875 0.782812L78.6559 0.930664L78.5598 0.937891C78.3088 0.960156 77.9838 0.952734 77.5996 0.91582C78.2865 0.871484 78.9439 0.819726 79.1875 0.782812ZM78.6189 3.14629L78.6264 3.24219L77.8951 3.30879L77.8877 3.21269L78.6189 3.14629ZM79.8154 3.71484C79.808 3.62637 79.6676 3.56719 79.3797 3.5377L78.6484 3.74453L78.0871 3.7666C77.9615 3.67793 77.8951 3.61895 77.8877 3.57461L78.5377 3.61152L80 3.3752L80.7459 3.40469L80.7533 3.52285C80.384 3.55977 80.0738 3.62637 79.8154 3.71484ZM87.3412 1.77246C87.4299 1.77988 87.4889 1.77988 87.5111 1.77988C87.7695 1.52871 88.0576 1.3293 88.39 1.18906C88.124 2.35605 87.7105 3.22012 87.1418 3.78145L86.7281 3.53027C87.0754 2.65137 87.2822 2.06797 87.3412 1.77246ZM86.0709 3.95117L86.1742 3.94395C86.034 4.20977 85.9084 4.35 85.8051 4.35742L85.7828 4.07676C85.8494 4.07676 85.9453 4.03242 86.0709 3.95117ZM85.2512 5.9084C85.4506 5.11074 85.6426 4.66035 85.8197 4.54219L85.8271 4.63809C85.7238 5.37656 85.5613 5.76816 85.3471 5.79766L85.384 6.26289C85.2068 6.51406 85.1256 6.70605 85.1328 6.85371L85.0295 6.86113L84.9705 6.21855C85.0887 6.20391 85.1846 6.10039 85.2512 5.9084ZM84.9336 6.97187C84.9408 7.08262 84.867 7.34121 84.7193 7.74004L84.616 7.74746L84.5938 7.4668C84.7342 7.1418 84.8523 6.9793 84.9334 6.97187H84.9336ZM78.9734 24.2687L78.966 24.1875L79.158 24.1728L79.1803 24.4535C79.0768 24.4609 79.0029 24.4018 78.9734 24.2687ZM87.4889 24.4904C87.4814 24.4238 87.452 24.3943 87.3855 24.4018L86.9055 24.4461L86.898 24.35H86.9424L88.0797 24.2541L88.0871 24.35C87.7549 24.3648 87.5555 24.4166 87.4889 24.4904ZM86.9203 24.2541C86.9647 24.2762 86.9424 24.2984 86.9203 24.3131C86.898 24.3057 86.8686 24.2836 86.9203 24.2541ZM86.9793 22.9246L86.3441 22.9764L86.3367 22.8803L86.9129 22.8287L87.415 22.7031C87.4225 22.7621 87.452 22.7844 87.5186 22.777C88.1168 22.6736 88.0576 22.6439 88.3457 22.6219C88.4416 22.6145 88.5008 22.6736 88.5082 22.7918L86.9793 22.9246ZM89.2023 22.7326C88.8479 22.6957 88.8258 22.6662 88.5746 22.6883L88.5672 22.607L89.1359 22.5555L89.1434 22.6367C89.0842 22.6439 89.2984 22.6588 89.2023 22.7326ZM89.2467 22.6293L89.2393 22.548L89.5494 22.5184L89.5568 22.5996L89.2467 22.6293ZM89.9336 22.5701L89.9262 22.4889C89.9779 22.4816 90.0518 22.4445 90.1477 22.3707C90.3027 22.3561 90.384 22.4594 90.3988 22.5775L89.9336 22.5701ZM90.8125 22.4594L90.8051 22.3633L91.1816 22.3338L91.1891 22.4299L90.8125 22.4594ZM91.3367 22.415C91.3295 22.3043 91.3736 22.2379 91.4697 22.223L91.5953 22.3855C91.5879 22.3338 91.61 22.3043 91.6543 22.2969L91.7504 22.4742L91.3367 22.415ZM98.6041 21.5584L98.6115 21.551V21.5436C98.6115 21.5436 98.6041 21.551 98.6041 21.5584ZM98.7371 21.4623C98.7961 21.4254 98.8258 21.3885 98.6854 21.3664C98.6189 21.4402 98.7592 21.4623 98.6115 21.4697L98.6189 21.5361C98.6336 21.5215 98.6707 21.4992 98.7002 21.4771L98.6189 21.5436V21.551L98.4639 21.7504L98.774 21.6396H98.8109L98.7961 21.4549L98.7371 21.4623ZM99.2762 21.8834L99.2172 21.8906L99.2318 22.0754L99.6676 22.0385C99.6604 21.9203 99.3723 21.8834 99.2762 21.8834Z" fill="#F9DC3E"/>
</svg>
