<svg width="99" height="87" viewBox="0 0 99 87" fill="none" xmlns="http://www.w3.org/2000/svg">
<path d="M88.2374 25.2996C88.0374 25.0871 87.8249 24.8746 87.6124 24.6746C87.3999 24.4746 87.1999 24.2496 86.9874 24.0496C86.7749 23.8496 86.5749 23.6246 86.3624 23.4246C86.1499 23.2246 85.9499 22.9996 85.7374 22.7996C85.5249 22.5996 85.3249 22.3746 85.1124 22.1746C84.8999 21.9746 84.6999 21.7496 84.4874 21.5496C84.2749 21.3496 84.0749 21.1246 83.8624 20.9246C90.0626 27.018 93.6146 35.3074 93.7499 43.9996C93.7499 64.7121 72.7249 81.5621 46.8749 81.5621C32.3999 81.5621 19.4499 76.2746 10.8374 67.9871L11.4624 68.6121L12.0874 69.2371L12.7124 69.8621L13.3374 70.4871L13.9624 71.1121L14.5874 71.7371L15.2124 72.3621C23.8124 80.9996 37.0499 86.5621 51.8749 86.5621C77.7249 86.5621 98.7499 69.7121 98.7499 49.0621C98.7499 40.2371 94.9499 31.8746 88.2374 25.2996Z" fill="black"/>
<path d="M90.625 43.9996C90.625 63.0121 71.0375 78.4246 46.875 78.4246C22.7125 78.4246 3.125 63.0121 3.125 43.9996C3.125 32.2121 10.625 21.7996 22.15 15.6246C33.675 9.44963 40.85 3.12463 46.875 3.12463C52.9 3.12463 58.05 8.28713 71.6 15.6246C83.125 21.7996 90.625 32.2121 90.625 43.9996Z" fill="#FBF0DF"/>
<path d="M90.6251 43.9997C90.619 41.5573 90.2826 39.1269 89.6251 36.7747C86.2126 78.3997 35.4376 80.3997 15.4751 67.9497C24.4489 74.9051 35.5227 78.5993 46.8751 78.4247C71.0001 78.4247 90.6251 62.9872 90.6251 43.9997Z" fill="#F6DECE"/>
<path d="M30.0375 13.3371C35.625 9.98713 43.05 3.69963 50.35 3.68713C49.227 3.32413 48.0552 3.13445 46.875 3.12463C43.85 3.12463 40.625 4.68713 36.5625 7.03713C35.15 7.86213 33.6875 8.77463 32.1375 9.72463C29.225 11.5246 25.8875 13.5621 22.1375 15.5996C10.2375 22.0371 3.125 32.6496 3.125 43.9996C3.125 44.4996 3.125 44.9996 3.125 45.4871C10.7 18.7246 24.4625 16.6871 30.0375 13.3371Z" fill="#FFFEFC"/>
<path fill-rule="evenodd" clip-rule="evenodd" d="M43.2751 6.28706C43.2926 9.23859 42.6729 12.1591 41.4584 14.8492C40.2438 17.5394 38.463 19.9357 36.2376 21.8746C35.8876 22.1871 36.1626 22.7871 36.6126 22.6121C40.8251 20.9746 46.5126 16.0746 44.1126 6.18706C44.0126 5.62456 43.2751 5.77456 43.2751 6.28706ZM46.1126 6.28706C47.6421 8.78259 48.6138 11.5794 48.9612 14.4856C49.3085 17.3919 49.0233 20.3389 48.1251 23.1246C47.9751 23.5621 48.5126 23.9371 48.8126 23.5746C51.5501 20.0746 53.9376 13.1246 46.7876 5.62456C46.4251 5.29956 45.8626 5.79956 46.1126 6.23706V6.28706ZM49.5626 6.07456C51.9578 7.77025 53.9615 9.95985 55.4385 12.4957C56.9156 15.0315 57.8317 17.8546 58.1251 20.7746C58.1124 20.8798 58.1408 20.9858 58.2042 21.0707C58.2676 21.1556 58.3613 21.2129 58.4658 21.2305C58.5703 21.2482 58.6776 21.225 58.7654 21.1657C58.8533 21.1064 58.9149 21.0156 58.9376 20.9121C60.0876 16.5496 59.4376 9.11206 49.9751 5.24956C49.4751 5.04956 49.1501 5.72456 49.5626 6.02456V6.07456ZM26.4876 19.0746C29.3367 18.2234 31.9746 16.7817 34.2295 14.8434C36.4844 12.9051 38.3058 10.5135 39.5751 7.82456C39.8001 7.37456 40.5126 7.54956 40.4001 8.04956C38.2376 18.0496 31.0001 20.1371 26.5001 19.8621C26.0251 19.8746 26.0376 19.2121 26.4876 19.0746Z" fill="#CCBEA7"/>
<path d="M46.875 81.5621C21.025 81.5621 0 64.7121 0 43.9996C0 31.4996 7.725 19.8371 20.6625 12.8496C24.4125 10.8496 27.625 8.83713 30.4875 7.07463C32.0625 6.09963 33.55 5.18713 34.9875 4.33713C39.375 1.73713 43.125 -0.000366211 46.875 -0.000366211C50.625 -0.000366211 53.9 1.49963 58 3.92463C59.25 4.63713 60.5 5.41213 61.8375 6.26213C64.95 8.18713 68.4625 10.3621 73.0875 12.8496C86.025 19.8371 93.75 31.4871 93.75 43.9996C93.75 64.7121 72.725 81.5621 46.875 81.5621ZM46.875 3.12463C43.85 3.12463 40.625 4.68713 36.5625 7.03713C35.15 7.86213 33.6875 8.77463 32.1375 9.72463C29.225 11.5246 25.8875 13.5621 22.1375 15.5996C10.2375 22.0371 3.125 32.6496 3.125 43.9996C3.125 62.9871 22.75 78.4371 46.875 78.4371C71 78.4371 90.625 62.9871 90.625 43.9996C90.625 32.6496 83.5125 22.0371 71.6 15.6246C66.875 13.1246 63.1875 10.7746 60.2 8.92463C58.8375 8.08713 57.5875 7.31213 56.45 6.62463C52.6625 4.37463 49.9 3.12463 46.875 3.12463Z" fill="black"/>
<path d="M55.6875 53.1247C55.126 55.4246 53.8477 57.4864 52.0375 59.0122C50.6784 60.3296 48.9191 61.1565 47.0375 61.3622C45.0994 61.1891 43.2783 60.3602 41.875 59.0122C40.0833 57.4792 38.823 55.4182 38.275 53.1247C38.2568 52.9885 38.2701 52.85 38.3137 52.7198C38.3574 52.5895 38.4302 52.471 38.5268 52.3733C38.6233 52.2755 38.7409 52.2012 38.8706 52.156C39.0003 52.1107 39.1386 52.0957 39.275 52.1122H54.7C54.8354 52.0978 54.9723 52.1143 55.1004 52.1605C55.2285 52.2067 55.3444 52.2813 55.4395 52.3788C55.5346 52.4762 55.6063 52.594 55.6492 52.7232C55.6922 52.8524 55.7053 52.9897 55.6875 53.1247Z" fill="#B71422"/>
<path d="M41.8749 59.1122C43.2753 60.4609 45.0898 61.2977 47.0248 61.4872C48.9555 61.295 50.7652 60.4584 52.1624 59.1122C52.6093 58.6956 53.0269 58.2487 53.4124 57.7747C52.6423 56.9011 51.7017 56.1943 50.6484 55.6977C49.595 55.2012 48.4512 54.9253 47.2874 54.8872C46.042 54.9167 44.8224 55.2484 43.7337 55.8537C42.6449 56.4591 41.7196 57.3199 41.0374 58.3622C41.3249 58.6247 41.5749 58.8747 41.8749 59.1122Z" fill="#FF6164"/>
<path d="M42.075 58.1247C42.6947 57.3237 43.4879 56.6735 44.3951 56.2232C45.3023 55.7729 46.2997 55.534 47.3124 55.5247C49.1844 55.5799 50.968 56.3335 52.3124 57.6372C52.5999 57.3247 52.8749 56.9997 53.1374 56.6747C51.5472 55.1602 49.4457 54.2991 47.25 54.2622C46.0765 54.2723 44.9199 54.5421 43.8631 55.0521C42.8062 55.5622 41.8754 56.2998 41.1375 57.2122C41.433 57.5333 41.746 57.8379 42.075 58.1247Z" fill="black"/>
<path d="M46.9874 62.1121C44.9045 61.9296 42.9443 61.0486 41.4249 59.6121C39.49 57.9756 38.1281 55.764 37.5374 53.2996C37.4951 53.0802 37.5023 52.8541 37.5585 52.6378C37.6147 52.4216 37.7186 52.2206 37.8624 52.0496C38.0338 51.8428 38.2501 51.6778 38.4949 51.5673C38.7397 51.4568 39.0065 51.4037 39.2749 51.4121H54.6999C54.968 51.4065 55.2339 51.4608 55.4783 51.5711C55.7227 51.6814 55.9393 51.8449 56.1124 52.0496C56.2549 52.2212 56.357 52.4226 56.4111 52.639C56.4652 52.8554 56.4699 53.0812 56.4249 53.2996C55.8343 55.764 54.4724 57.9756 52.5374 59.6121C51.0214 61.0461 49.066 61.9269 46.9874 62.1121ZM39.2749 52.8621C39.0749 52.8621 39.0249 52.9496 39.0124 52.9746C39.5408 55.1117 40.7361 57.025 42.4249 58.4371C43.6599 59.6538 45.2655 60.4236 46.9874 60.6246C48.7049 60.4259 50.3088 59.6657 51.5499 58.4621C53.2335 57.0476 54.4241 55.1347 54.9499 52.9996C54.9227 52.9596 54.8849 52.928 54.8408 52.9081C54.7967 52.8883 54.7479 52.881 54.6999 52.8871L39.2749 52.8621Z" fill="black"/>
<path d="M65.8999 53.8996C69.9385 53.8996 73.2124 51.9744 73.2124 49.5996C73.2124 47.2247 69.9385 45.2996 65.8999 45.2996C61.8613 45.2996 58.5874 47.2247 58.5874 49.5996C58.5874 51.9744 61.8613 53.8996 65.8999 53.8996Z" fill="#FEBBD0"/>
<path d="M28.0625 53.8996C32.1011 53.8996 35.375 51.9744 35.375 49.5996C35.375 47.2247 32.1011 45.2996 28.0625 45.2996C24.0239 45.2996 20.75 47.2247 20.75 49.5996C20.75 51.9744 24.0239 53.8996 28.0625 53.8996Z" fill="#FEBBD0"/>
<path fill-rule="evenodd" clip-rule="evenodd" d="M31.5 47.8746C32.8627 47.8771 34.1956 47.4752 35.3299 46.7199C36.4642 45.9646 37.3489 44.8898 37.8721 43.6315C38.3953 42.3732 38.5335 40.988 38.2692 39.6511C38.0048 38.3142 37.3499 37.0858 36.3871 36.1213C35.4244 35.1569 34.1972 34.4996 32.8608 34.2329C31.5244 33.9661 30.1389 34.1018 28.8797 34.6227C27.6204 35.1436 26.544 36.0264 25.7866 37.1593C25.0293 38.2922 24.625 39.6244 24.625 40.9871C24.625 42.8116 25.3489 44.5616 26.6379 45.8529C27.9268 47.1442 29.6755 47.8713 31.5 47.8746ZM62.4625 47.8746C63.8268 47.8845 65.1633 47.489 66.3025 46.7382C67.4417 45.9875 68.3323 44.9153 68.8613 43.6577C69.3902 42.4 69.5338 41.0136 69.2737 39.6743C69.0136 38.335 68.3616 37.1031 67.4004 36.1349C66.4392 35.1666 65.2121 34.5057 63.8747 34.2358C62.5373 33.966 61.1499 34.0994 59.8884 34.6192C58.627 35.139 57.5484 36.0218 56.7893 37.1555C56.0303 38.2892 55.625 39.6228 55.625 40.9871C55.6217 42.8062 56.3394 44.5524 57.6209 45.8433C58.9025 47.1343 60.6435 47.8647 62.4625 47.8746Z" fill="black"/>
<path fill-rule="evenodd" clip-rule="evenodd" d="M29.375 41.4246C29.8873 41.4271 30.3888 41.2774 30.816 40.9946C31.2431 40.7118 31.5767 40.3086 31.7745 39.836C31.9722 39.3634 32.0253 38.8428 31.9268 38.34C31.8284 37.8373 31.583 37.3751 31.2216 37.0119C30.8602 36.6488 30.3992 36.4011 29.897 36.3003C29.3947 36.1994 28.8738 36.2499 28.4003 36.4454C27.9267 36.6409 27.5219 36.9725 27.237 37.3983C26.9521 37.8241 26.8001 38.3248 26.8 38.8371C26.8 39.5212 27.0709 40.1774 27.5535 40.6623C28.036 41.1472 28.691 41.4213 29.375 41.4246ZM60.3375 41.4246C60.8498 41.4271 61.3513 41.2774 61.7785 40.9946C62.2056 40.7118 62.5392 40.3086 62.737 39.836C62.9347 39.3634 62.9878 38.8428 62.8893 38.34C62.7909 37.8373 62.5455 37.3751 62.1841 37.0119C61.8227 36.6488 61.3617 36.4011 60.8595 36.3003C60.3572 36.1994 59.8363 36.2499 59.3628 36.4454C58.8892 36.6409 58.4844 36.9725 58.1995 37.3983C57.9146 37.8241 57.7626 38.3248 57.7625 38.8371C57.7625 39.5169 58.0299 40.1694 58.5071 40.6536C58.9843 41.1378 59.6328 41.4148 60.3125 41.4246H60.3375Z" fill="white"/>
</svg>
