<svg width="99" height="100" viewBox="0 0 99 100" fill="none" xmlns="http://www.w3.org/2000/svg">
<path fill-rule="evenodd" clip-rule="evenodd" d="M48.4063 -0.00109863C25.1122 -0.00109863 5.56423 15.9903 0.0626708 37.6101C0.025394 37.7674 4.57764e-05 37.9278 4.57764e-05 38.0951C4.57764e-05 39.4098 1.06417 40.4757 2.37681 40.4757H22.4894C23.4471 40.4757 24.2667 39.9029 24.645 39.0852C28.7772 30.0718 37.8574 23.8069 48.4063 23.8069C62.8383 23.8069 74.544 35.5359 74.544 49.9995C74.544 64.4636 62.8383 76.1922 48.4063 76.1922C37.8574 76.1922 28.7807 69.9265 24.6484 60.9105L24.645 60.9157C24.2667 60.0965 23.4471 59.5245 22.4894 59.5245H2.37681C1.06417 59.5245 4.57764e-05 60.5874 4.57764e-05 61.9057C4.57764e-05 62.0684 0.025394 62.2239 0.0591914 62.3798C5.55926 84.001 25.1077 99.9989 48.4063 99.9989C75.9633 99.9989 98.3071 77.6102 98.3071 49.9995C98.3071 22.3856 75.9633 -0.00109863 48.4063 -0.00109863ZM36.5238 49.9995C36.5238 43.4264 41.8452 38.0951 48.4063 38.0951C54.967 38.0951 60.286 43.4264 60.286 49.9995C60.286 56.573 54.967 61.9057 48.4063 61.9057C41.8452 61.9057 36.5238 56.573 36.5238 49.9995Z" fill="black"/>
</svg>
