<svg width="95" height="100" viewBox="0 0 95 100" fill="none" xmlns="http://www.w3.org/2000/svg">
<path d="M1.77921 63.2466C0.600242 58.9531 0 54.4935 0 50.0019C0 29.4975 12.8776 10.7491 32.0467 3.35583L34.56 9.86046C18.0597 16.2259 6.97739 32.3562 6.97739 50.0019C6.97739 53.8725 7.49183 57.7056 8.50469 61.3996L1.77921 63.2466Z" fill="#69D3A7"/>
<path d="M88.4391 30.1935C80.9796 15.8726 66.2958 6.97489 50.1279 6.97489C44.3991 6.97489 38.8312 8.07773 33.5902 10.2459L30.916 3.80554C37.0091 1.284 43.4721 -0.000854492 50.1279 -0.000854492C68.911 -0.000854492 85.9633 10.3316 94.6287 26.9706L88.4391 30.1935Z" fill="url(#paint0_linear_751_7237)"/>
<path d="M35.1605 39.6854C39.2063 39.6854 42.5022 41.8429 44.1957 45.6064L44.3297 45.901L51.1247 43.5935L50.9801 43.2456C48.3488 36.8373 42.2878 32.8541 35.1605 32.8541C30.1497 32.8541 26.0769 34.4604 22.7115 37.7581C19.3674 41.0345 17.6741 45.1568 17.6741 50.0125C17.6741 54.8254 19.3674 58.9262 22.7115 62.2027C26.0769 65.5006 30.1497 67.1066 35.1605 67.1066C42.2878 67.1066 48.3488 63.1235 50.9801 56.7206L51.1247 56.3727L44.3188 54.0597L44.1903 54.365C42.6736 58.0643 39.2976 60.2754 35.1605 60.2754C32.3415 60.2754 29.9622 59.2904 28.0757 57.3522C26.168 55.3875 25.2034 52.9195 25.2034 50.0179C25.2034 47.0947 26.1465 44.675 28.0757 42.6191C29.9567 40.6706 32.3415 39.6854 35.1605 39.6854Z" fill="#1B1E2E"/>
<path d="M77.721 33.486L68.0375 57.9893L58.2896 33.486H50.3154L63.9861 66.9299L54.2596 90.5178L61.2317 91.9045L85.2558 33.486H77.721Z" fill="#1B1E2E"/>
<path d="M55.5071 87.4771L53.8083 91.5887C53.4706 92.4025 52.6989 92.9537 51.8308 92.9912C51.2575 93.0127 50.6787 93.0287 50.0946 93.0287C30.1002 93.0181 12.4103 78.9221 8.02662 59.4991L1.2207 61.0356C3.68048 71.9302 9.85404 81.8183 18.6052 88.8852C27.4583 96.0321 38.6102 99.9777 50.0196 99.9991C50.0356 99.9991 50.1212 99.9991 50.1212 99.9991C50.7912 99.9991 51.4556 99.9831 52.1202 99.9564C55.7 99.8064 58.8994 97.5633 60.2658 94.2387L62.4844 88.8637L55.5071 87.4771Z" fill="url(#paint1_linear_751_7237)"/>
<defs>
<linearGradient id="paint0_linear_751_7237" x1="44.9118" y1="-3.22881" x2="82.9637" y2="37.4414" gradientUnits="userSpaceOnUse">
<stop offset="0.0939" stop-color="#58D09E"/>
<stop offset="0.9883" stop-color="#58D09E" stop-opacity="0"/>
</linearGradient>
<linearGradient id="paint1_linear_751_7237" x1="-0.534201" y1="72.7523" x2="72.1625" y2="92.1016" gradientUnits="userSpaceOnUse">
<stop offset="0.0774" stop-color="#58D09E"/>
<stop offset="0.7617" stop-color="#1B1E2E"/>
</linearGradient>
</defs>
</svg>
