<svg width="100" height="88" viewBox="0 0 100 88" fill="none" xmlns="http://www.w3.org/2000/svg">
<path d="M30.455 31.4724L49.4277 20.5185C49.661 20.3837 49.9257 20.3127 50.1952 20.3127C50.4647 20.3127 50.7294 20.3837 50.9628 20.5185L69.9355 31.4724C70.1688 31.6072 70.3625 31.8009 70.4973 32.0343C70.632 32.2676 70.703 32.5323 70.7031 32.8017V54.7095C70.7031 55.2575 70.4101 55.7642 69.9355 56.0388L50.9628 66.9927C50.7294 67.1275 50.4647 67.1984 50.1952 67.1984C49.9257 67.1984 49.661 67.1275 49.4277 66.9927L30.455 56.0388C30.2216 55.904 30.0279 55.7103 29.8931 55.4769C29.7584 55.2436 29.6875 54.9789 29.6874 54.7095V32.8013C29.6878 32.2529 29.9803 31.7466 30.455 31.472" fill="#8080F2"/>
<path d="M99.3816 41.9603L76.6886 2.48096C75.8644 1.05362 74.3418 0.000488281 72.6933 0.000488281H27.3069C25.6584 0.000488281 24.135 1.05362 23.3108 2.48096L0.618165 41.8732C-0.206055 43.301 -0.206055 45.1029 0.618165 46.5307L23.3108 85.6866C24.135 87.114 25.6584 87.8436 27.3069 87.8436H72.6929C74.3414 87.8436 75.8644 87.1358 76.6882 85.7081L99.3812 46.4885C100.206 45.0615 100.206 43.3877 99.3812 41.9603H99.3816ZM80.5906 60.9448C80.5906 61.5248 80.2414 62.0619 79.7382 62.3526L50.8323 79.0296C50.5834 79.1722 50.3016 79.2472 50.0147 79.2472C49.7279 79.2472 49.446 79.1722 49.1972 79.0296L20.269 62.3526C19.7663 62.0619 19.4143 61.5252 19.4143 60.9444V27.5896C19.4143 27.0087 19.7612 26.4724 20.2643 26.1818L49.1687 9.50441C49.4174 9.36158 49.6992 9.28642 49.986 9.28642C50.2729 9.28642 50.5547 9.36158 50.8034 9.50441L79.7332 26.1818C80.2367 26.4724 80.5906 27.0087 80.5906 27.5896V60.9444V60.9448Z" fill="#4B32C3"/>
</svg>
