<svg width="67" height="98" viewBox="0 0 67 98" fill="none" xmlns="http://www.w3.org/2000/svg">
<path d="M63.8222 63.8219C64.8722 64.8719 64.1278 66.6663 62.6444 66.6663H35C34.0778 66.6663 33.3333 67.4108 33.3333 68.333V95.9774C33.3333 97.4608 31.5389 98.2052 30.4889 97.1552L0.65 67.3163C0.233333 66.8997 0 66.333 0 65.7441V34.9997C0 34.0775 0.744444 33.333 1.66667 33.333H33.3333L63.8222 63.8219Z" fill="black"/>
<path d="M33.3334 33.333L2.84447 2.84408C1.79447 1.79408 2.53892 -0.000366211 4.02225 -0.000366211H65C65.9222 -0.000366211 66.6667 0.744078 66.6667 1.6663V31.6663C66.6667 32.5885 65.9222 33.333 65 33.333H33.3334Z" fill="black"/>
</svg>
