<svg width="91" height="100" viewBox="0 0 91 100" fill="none" xmlns="http://www.w3.org/2000/svg">
<path d="M84.8776 49.2363C84.8776 44.0958 80.7101 39.9284 75.5697 39.9284C75.2388 39.9284 74.9128 39.9461 74.5911 39.9801L87.3755 2.2738H33.0461L45.8128 39.9472C45.6244 39.9353 45.4357 39.9291 45.247 39.9287C40.1066 39.9287 35.9391 44.0955 35.9391 49.2366C35.9391 53.3917 38.6624 56.9097 42.4206 58.1066C40.4357 61.5448 37.9378 64.6419 35.1019 67.3177C31.2455 70.9555 26.8321 73.7142 22.0588 75.4138C16.3756 72.4943 13.692 66.0014 16.1134 60.3086C16.3869 59.6655 16.6661 59.014 16.9329 58.3652C21.05 57.4043 24.1184 53.7134 24.1184 49.3032C24.1184 44.1624 19.951 39.9953 14.8102 39.9953C9.66942 39.9953 5.50231 44.1624 5.50231 49.3032C5.50231 52.4556 7.07051 55.2401 9.46817 56.9238C7.1644 62.1691 3.77785 67.6589 2.7227 74.0214C1.45814 81.6462 2.71845 89.7402 9.31333 94.3113C24.6722 104.956 41.3442 87.7121 58.9225 83.3771C65.2931 81.8064 72.2862 82.0594 77.899 78.8089C82.1139 76.3676 84.8928 72.3217 85.6812 67.7797C86.4607 63.2927 85.3247 58.8251 82.7127 55.2026C84.114 53.5306 84.8806 51.4178 84.8776 49.2363Z" fill="#99425B"/>
<path d="M83.4415 67.3907C82.757 71.3342 80.3214 74.7785 76.7598 76.8417C73.4395 78.7646 69.4609 79.3386 65.2481 79.9459C62.9914 80.2711 60.6579 80.6081 58.3782 81.17C52.3506 82.6564 46.5122 85.5564 40.8665 88.3609C29.5674 93.9732 19.8095 98.8196 10.6087 92.4426C3.86887 87.7716 4.17996 79.1292 4.96512 74.3934C5.69289 70.0055 7.6604 65.9645 9.56272 62.0568C9.88682 61.3927 10.2083 60.7272 10.5272 60.0606C11.4861 60.4439 12.4923 60.6963 13.5187 60.811C11.582 67.2025 14.6277 74.1521 21.0199 77.4359L21.895 77.8855L22.8212 77.5556C27.8748 75.7557 32.5316 72.868 36.6619 68.9709C39.3316 66.4521 41.6273 63.6654 43.514 60.6877C44.0876 60.7743 44.6669 60.8177 45.2469 60.8178C51.1141 60.8178 55.9724 56.4317 56.7243 50.7669C59.1259 50.679 61.6766 50.6783 64.0919 50.7662C64.8431 56.4317 69.7022 60.8181 75.5693 60.8181C78.0226 60.8181 80.298 60.0492 82.1727 58.7432C83.4741 61.4073 83.9599 64.4049 83.4415 67.3907ZM14.8105 42.2686C18.6895 42.2686 21.8451 45.4245 21.8451 49.3035C21.8451 50.6967 21.4362 51.996 20.7343 53.0901C19.5651 54.9138 17.5774 56.1638 15.2938 56.3197C15.134 56.3303 14.9728 56.3381 14.8105 56.3381C13.946 56.3381 13.1179 56.1805 12.3523 55.8942C10.8102 55.3143 9.51889 54.2145 8.70103 52.7843C8.09373 51.7249 7.77464 50.5247 7.77556 49.3035C7.77556 45.4245 10.9314 42.2686 14.8105 42.2686ZM38.2127 49.2366C38.2127 45.7122 40.818 42.7859 44.2031 42.2799C44.544 42.2286 44.8926 42.202 45.2473 42.202C47.5025 42.202 49.5104 43.2703 50.798 44.9256C51.1205 45.3384 51.396 45.7858 51.6193 46.2596C52.0566 47.1911 52.2828 48.2076 52.2819 49.2366C52.2819 49.7989 52.2139 50.3456 52.0888 50.87C51.4032 53.7399 48.9559 55.9339 45.957 56.2357C45.7239 56.2591 45.4872 56.2712 45.2473 56.2712C43.8942 56.2723 42.5698 55.8808 41.4349 55.1441C39.4982 53.8895 38.2127 51.7108 38.2127 49.2366ZM67.5731 40.8712C66.0423 42.3324 64.9406 44.1847 64.3874 46.2274C61.7359 46.1296 59.0817 46.1296 56.4302 46.2274C55.835 44.0193 54.6012 42.0713 52.9413 40.5916L60.2207 25.8726L67.5731 40.8712ZM36.2168 4.54778H84.2043L72.8701 37.9757C72.3825 38.0925 71.903 38.241 71.4348 38.4204L60.2384 15.5801L49.0101 38.284C48.5207 38.116 48.0204 37.9811 47.5128 37.8804L36.2168 4.54778ZM82.6039 49.2369C82.6039 49.942 82.4987 50.623 82.3048 51.2661C81.845 52.7801 80.8901 54.0959 79.5933 55.0024C78.4146 55.8296 77.0093 56.2728 75.5693 56.2715C72.3213 56.2715 69.5814 54.0581 68.7756 51.0606C68.6157 50.4659 68.5346 49.8528 68.5347 49.2369C68.5347 48.2753 68.7289 47.3584 69.0797 46.5229C69.2607 46.0954 69.4835 45.6869 69.745 45.3033C71.011 43.4347 73.1472 42.2024 75.5693 42.2024C75.7915 42.2024 76.0104 42.2137 76.2276 42.2342C79.7991 42.5669 82.6042 45.5797 82.6042 49.2369H82.6039ZM87.1508 49.2369C87.1508 43.5828 83.0769 38.865 77.7111 37.8574L90.5466 0.000488281H29.8753L42.7306 37.9339C37.5512 39.0865 33.6661 43.7149 33.6661 49.2366C33.6661 53.3828 35.8572 57.0244 39.141 59.071C37.5615 61.4243 35.6886 63.6388 33.5421 65.6641C30.1378 68.8753 26.3456 71.3108 22.2572 72.9134C18.1389 70.3265 16.3982 65.448 18.2059 61.1983L18.3476 60.8652L18.6134 60.2402C23.1366 58.6624 26.3917 54.3575 26.3917 49.3035C26.3917 42.9174 21.1963 37.722 14.8105 37.722C8.42466 37.722 3.22862 42.9174 3.22862 49.3035C3.22862 52.5268 4.55376 55.4456 6.68603 57.5474C6.28835 58.39 5.88465 59.2298 5.47498 60.0666C3.52518 64.0707 1.31567 68.6092 0.479836 73.6493C-1.17978 83.6587 1.49743 91.6603 8.01862 96.1796C11.9756 98.922 15.9943 100 20.0381 100C27.6523 100 35.3551 96.1749 42.889 92.4327C48.3146 89.7381 53.9252 86.9514 59.4671 85.5844C61.5292 85.076 63.6508 84.7699 65.8972 84.446C70.352 83.8033 74.9581 83.139 79.0384 80.776C83.7682 78.0364 87.0056 73.441 87.9211 68.1687C88.707 63.6424 87.7613 59.1089 85.4547 55.2639C86.5661 53.4501 87.1532 51.3638 87.1508 49.2366V49.2369Z" fill="white"/>
</svg>
