<svg width="87" height="100" viewBox="0 0 87 100" fill="none" xmlns="http://www.w3.org/2000/svg">
<path d="M43.3018 0.000488281L86.6035 25.0005V75.0005L43.3018 100L0 75.0005V25.0005L43.3018 0.000488281Z" fill="#673AB8"/>
<path d="M11.7947 74.5871C17.5511 81.9551 35.8457 76.3411 53.1174 62.8469C70.389 49.353 80.2622 32.9602 74.5057 25.5918C68.749 18.2238 50.4547 23.8381 33.183 37.332C15.9114 50.8266 6.03823 67.219 11.7947 74.5871ZM14.2541 72.6656C12.3447 70.2224 13.179 65.4254 16.816 59.3865C20.6461 53.0275 27.1478 46.0076 35.1042 39.7914C43.0609 33.5752 51.4449 28.9646 58.5416 26.7867C65.2811 24.7187 70.1373 25.0698 72.0463 27.5133C73.9557 29.9568 73.1214 34.7539 69.4844 40.7928C65.6543 47.1517 59.1526 54.1713 51.1962 60.3878C43.2395 66.604 34.8552 71.2146 27.7588 73.3922C21.0193 75.4606 16.1631 75.1091 14.2541 72.6656Z" fill="white"/>
<path d="M74.5057 74.5871C80.2625 67.219 70.389 50.8263 53.1174 37.332C35.8457 23.8381 17.5507 18.2238 11.7946 25.5918C6.03786 32.9599 15.9113 49.353 33.183 62.8469C50.4546 76.3411 68.749 81.9555 74.5057 74.5871ZM72.0463 72.6656C70.1373 75.1094 65.2811 75.4606 58.5416 73.3922C51.4448 71.2146 43.0609 66.604 35.1045 60.3878C27.1478 54.1713 20.6458 47.1517 16.8163 40.7928C13.1789 34.7539 12.3447 29.9572 14.2537 27.5133C16.163 25.0698 21.0193 24.7187 27.7584 26.7867C34.8552 28.9646 43.2395 33.5752 51.1958 39.7914C59.1525 46.0076 65.6542 53.0275 69.4841 59.3865C73.1214 65.425 73.9557 70.2217 72.0463 72.6656Z" fill="white"/>
<path d="M43.1502 56.7214C46.8129 56.7214 49.7818 53.7522 49.7818 50.0895C49.7818 46.4271 46.8129 43.4579 43.1502 43.4579C39.4875 43.4579 36.5182 46.4271 36.5182 50.0895C36.5182 53.7522 39.4875 56.7214 43.1502 56.7214Z" fill="white"/>
</svg>
