<svg width="100" height="95" viewBox="0 0 100 95" fill="none" xmlns="http://www.w3.org/2000/svg">
<path d="M69.2895 66.3024C72.9798 65.9204 75.7794 62.7392 75.652 58.9212C75.5251 55.1036 72.3434 52.0493 68.5258 52.0493H68.2715C64.3262 52.1767 61.2723 55.4852 61.3997 59.4302C61.527 61.3392 62.2903 62.9935 63.4356 64.1388C59.109 72.6653 52.4918 78.9009 42.5661 84.1184C35.8215 87.6817 28.8227 88.9544 21.8238 88.0638C16.0973 87.3001 11.6434 84.7552 8.84336 80.5552C4.77148 74.3196 4.38984 67.5747 7.82579 60.8302C10.2438 55.9942 14.0609 52.431 16.4789 50.6493C15.9699 48.995 15.2063 46.1954 14.8246 44.1595C-3.62735 57.5216 -1.71837 75.5923 3.88086 84.1184C8.08008 90.4817 16.6063 94.4267 26.0231 94.4267C28.568 94.4267 31.1129 94.172 33.6582 93.536C49.9469 90.3544 62.2907 80.6825 69.2895 66.3024ZM91.6864 50.5224C82.0149 39.1962 67.7626 32.9606 51.4739 32.9606H49.4379C48.2926 30.67 45.8747 29.1427 43.2024 29.1427H42.9477C39.0032 29.27 35.9493 32.5786 36.0762 36.5239C36.2035 40.3415 39.3848 43.3958 43.2024 43.3958H43.4567C46.2563 43.2685 48.6743 41.4868 49.6922 39.0688H51.9829C61.6544 39.0688 70.8165 41.8685 79.0884 47.3407C85.4509 51.5403 90.0321 57.0126 92.577 63.6298C94.7403 68.9747 94.613 74.1923 92.3224 78.6466C88.7595 85.3911 82.7786 89.0817 74.8887 89.0817C69.7985 89.0817 64.963 87.5544 62.4176 86.4091C61.018 87.6817 58.4727 89.7177 56.6911 90.9907C62.1633 93.5356 67.7626 94.9356 73.1071 94.9356C85.3235 94.9356 94.3587 88.1907 97.7946 81.4462C101.485 74.0649 101.23 61.3392 91.6864 50.5224ZM27.041 68.4653C27.1684 72.2833 30.3496 75.3372 34.1672 75.3372H34.4219C38.3668 75.2103 41.4207 71.9013 41.2934 67.9563C41.1664 64.1384 37.9848 61.0845 34.1672 61.0845H33.9129C33.6582 61.0845 33.2762 61.0845 33.0223 61.2114C27.8047 52.5579 25.6414 43.1411 26.4051 32.9603C26.9137 25.3247 29.459 18.7071 33.9129 13.2349C37.6032 8.52627 44.7293 6.23564 49.5653 6.10869C63.054 5.854 68.7801 22.652 69.1622 29.397C70.8165 29.7786 73.6161 30.6696 75.5251 31.306C73.9977 10.6903 61.2723 0.000488281 49.0563 0.000488281C37.6032 0.000488281 27.041 8.27236 22.8414 20.4892C16.9879 36.7782 20.8055 52.431 27.9317 64.7751C27.2957 65.6657 26.9137 67.0657 27.041 68.4657V68.4653Z" fill="#764ABC"/>
</svg>
