<svg width="100" height="75" viewBox="0 0 100 75" fill="none" xmlns="http://www.w3.org/2000/svg">
<path d="M86.1078 43.1116C82.6191 43.1299 79.5871 43.9701 77.0482 45.2121C76.1167 43.3673 75.1851 41.7235 75.0207 40.5179C74.8381 39.1115 74.6189 38.253 74.8381 36.5726C75.0573 34.8922 76.0436 32.4994 76.0253 32.3168C76.0071 32.1341 75.8061 31.2757 73.797 31.2574C71.7878 31.2391 70.0526 31.641 69.8516 32.1707C69.6507 32.7004 69.2671 33.9059 69.0114 35.1479C68.6644 36.9744 64.993 43.4952 62.8925 46.9108C62.2167 45.5774 61.6322 44.4085 61.5043 43.4769C61.3217 42.0705 61.1025 41.212 61.3217 39.5316C61.5409 37.8512 62.5272 35.4584 62.5089 35.2758C62.4907 35.0931 62.2898 34.2346 60.2806 34.2164C58.2714 34.1981 56.5362 34.5999 56.3352 35.1296C56.1343 35.6593 55.9151 36.9014 55.495 38.1069C55.0749 39.3124 50.1981 50.1986 48.9195 53.0115C48.2619 54.4544 47.6957 55.6051 47.2939 56.3906C47.2939 56.3906 47.2756 56.4454 47.2208 56.5367C46.8738 57.2125 46.6729 57.5778 46.6729 57.5778C46.6729 57.5778 46.6729 57.5778 46.6729 57.5961C46.3989 58.0892 46.1066 58.5459 45.9605 58.5459C45.8509 58.5459 45.65 57.2308 45.997 55.4408C46.7276 51.6598 48.4629 45.7784 48.4446 45.5774C48.4446 45.4679 48.7734 44.445 47.3121 43.9153C45.8874 43.3856 45.376 44.2623 45.2482 44.2623C45.1203 44.2623 45.029 44.5729 45.029 44.5729C45.029 44.5729 46.6181 37.9608 41.9969 37.9608C39.111 37.9608 35.1291 41.1207 33.1565 43.9701C31.9144 44.6459 29.2659 46.0889 26.4348 47.6414C25.3571 48.2442 24.243 48.847 23.2018 49.4132C23.1288 49.3401 23.0557 49.2488 22.9826 49.1757C17.3934 43.2029 7.05523 38.9836 7.4936 30.9651C7.65799 28.0427 8.66258 20.3712 27.3481 11.0559C42.7275 3.47573 54.9653 5.57625 57.0841 10.2339C60.1162 16.8825 50.5269 29.2299 34.636 31.0199C28.5719 31.6958 25.3937 29.3578 24.59 28.481C23.7498 27.5678 23.6219 27.513 23.3114 27.6956C22.8 27.9696 23.1288 28.7916 23.3114 29.2665C23.7863 30.5085 25.7407 32.7003 29.0468 33.778C31.9692 34.7278 39.0745 35.2575 47.6774 31.9332C57.3033 28.2071 64.8286 17.8506 62.6185 9.17453C60.4084 0.370613 45.7961 -2.53358 31.9692 2.37981C23.7498 5.30227 14.8363 9.90515 8.42513 15.8962C0.808465 23.0197 -0.397049 29.2117 0.096116 31.8053C1.86786 41.0111 14.5623 47.0021 19.6401 51.4406C19.3844 51.5868 19.1469 51.7146 18.946 51.8242C16.4071 53.0845 6.72645 58.144 4.31542 63.4958C1.57561 69.5599 4.75379 73.9071 6.85431 74.4916C13.3751 76.2998 20.0784 73.0486 23.6767 67.6786C27.275 62.3085 26.8366 55.3312 25.1745 52.1347C25.1562 52.0982 25.138 52.0617 25.1014 52.0251C25.759 51.6416 26.4348 51.2397 27.0924 50.8561C28.3892 50.089 29.6678 49.3766 30.7637 48.7922C30.1427 50.4908 29.686 52.5183 29.4669 55.4408C29.1929 58.8746 30.5993 63.3314 32.4441 65.0849C33.2661 65.852 34.2341 65.8703 34.8551 65.8703C37.0105 65.8703 37.9785 64.0803 39.0562 61.9615C40.3713 59.3678 41.5585 56.354 41.5585 56.354C41.5585 56.354 40.079 64.5004 44.0974 64.5004C45.5587 64.5004 47.0382 62.6008 47.6957 61.6327C47.6957 61.651 47.6957 61.651 47.6957 61.651C47.6957 61.651 47.7322 61.5962 47.8053 61.4683C47.9514 61.2309 48.0428 61.0848 48.0428 61.0848C48.0428 61.0848 48.0428 61.0665 48.0428 61.0482C48.6273 60.0254 49.9424 57.7057 51.8968 53.8517C54.4174 48.8835 56.8467 42.6733 56.8467 42.6733C56.8467 42.6733 57.0659 44.1893 57.8147 46.7099C58.2531 48.1894 59.1664 49.815 59.897 51.3858C59.3125 52.2078 58.9472 52.6644 58.9472 52.6644C58.9472 52.6644 58.9472 52.6644 58.9655 52.6827C58.4906 53.3037 57.9791 53.9795 57.4129 54.6371C55.422 57.0116 53.0475 59.7331 52.7187 60.5185C52.3351 61.4501 52.4265 62.1259 53.1571 62.6739C53.6868 63.0757 54.6366 63.1305 55.6046 63.0757C57.3946 62.9478 58.6549 62.5095 59.276 62.2355C60.244 61.8884 61.3765 61.3587 62.4359 60.5733C64.3903 59.1304 65.5775 57.0664 65.4679 54.3448C65.4131 52.8471 64.92 51.3493 64.3172 49.9429C64.4999 49.6872 64.6643 49.4314 64.8469 49.1757C67.9338 44.6642 70.3265 39.7143 70.3265 39.7143C70.3265 39.7143 70.5457 41.2303 71.2946 43.7509C71.6599 45.0295 72.4088 46.4177 73.0663 47.7693C70.1621 50.1255 68.3721 52.8653 67.7328 54.6553C66.5821 57.9796 67.4771 59.4774 69.1758 59.8244C69.943 59.9888 71.0389 59.6235 71.8426 59.2765C72.8654 58.9477 74.0709 58.3815 75.2216 57.5413C77.176 56.0983 79.0574 54.0891 78.9478 51.3676C78.893 50.1255 78.5642 48.9017 78.1076 47.7145C80.5734 46.6916 83.7516 46.1254 87.8065 46.6003C96.5008 47.6232 98.2178 53.048 97.889 55.3312C97.5602 57.6143 95.7337 58.8564 95.1309 59.24C94.5282 59.6235 94.3273 59.7514 94.382 60.0254C94.4551 60.4272 94.7474 60.4089 95.2588 60.3359C95.9711 60.208 99.8251 58.4911 99.9895 54.29C100.264 48.92 95.1492 43.0568 86.1078 43.1116ZM19.0373 65.7242C16.1514 68.8658 12.133 70.0531 10.3978 69.0485C8.53473 67.9708 9.26534 63.3314 12.8088 60.0071C14.9641 57.9796 17.7405 56.0983 19.5853 54.9476C20.0054 54.6919 20.6264 54.3266 21.3753 53.8699C21.5032 53.7969 21.5762 53.7603 21.5762 53.7603C21.7223 53.669 21.8685 53.5777 22.0146 53.4864C23.3114 58.2354 22.0694 62.4181 19.0373 65.7242ZM40.0425 51.4406C39.0379 53.8882 36.9374 60.1532 35.6588 59.8062C34.5629 59.5139 33.8871 54.7649 35.4396 50.0707C36.2251 47.7145 37.8872 44.9016 38.8553 43.8057C40.4261 42.0522 42.1613 41.4677 42.5814 42.1801C43.1111 43.1116 40.6635 49.9063 40.0425 51.4406ZM57.3764 59.7331C56.9563 59.9523 56.5544 60.0984 56.3718 59.9888C56.2439 59.9158 56.5544 59.6235 56.5544 59.6235C56.5544 59.6235 58.728 57.2856 59.5865 56.2262C60.0796 55.6051 60.6641 54.8745 61.2852 54.0526C61.2852 54.1256 61.2852 54.217 61.2852 54.29C61.2852 57.0846 58.5819 58.966 57.3764 59.7331ZM70.7466 56.6828C70.4361 56.4636 70.4909 55.733 71.532 53.4498C71.9339 52.5548 72.8837 51.0571 74.5093 49.6141C74.692 50.1986 74.8198 50.7648 74.8016 51.2945C74.7833 54.8197 72.2627 56.1348 70.7466 56.6828Z" fill="#CD6799"/>
</svg>
