<svg width="98" height="100" viewBox="0 0 98 100" fill="none" xmlns="http://www.w3.org/2000/svg">
<path d="M56.8941 98.3382C54.3395 101.555 49.1596 99.7927 49.0981 95.6848L48.198 35.6028H88.5971C95.9144 35.6028 99.9955 44.0544 95.4454 49.7852L56.8941 98.3382Z" fill="url(#paint0_linear_751_7282)"/>
<path d="M56.8941 98.3382C54.3395 101.555 49.1596 99.7927 49.0981 95.6848L48.198 35.6028H88.5971C95.9144 35.6028 99.9955 44.0544 95.4454 49.7852L56.8941 98.3382Z" fill="url(#paint1_linear_751_7282)" fill-opacity="0.2"/>
<path d="M40.464 1.66122C43.0187 -1.55626 48.1986 0.206684 48.2601 4.31457L48.6546 64.3965H8.76106C1.44348 64.3965 -2.63767 55.9449 1.91262 50.2141L40.464 1.66122Z" fill="#3ECF8E"/>
<defs>
<linearGradient id="paint0_linear_751_7282" x1="48.198" y1="48.9245" x2="84.1033" y2="63.9831" gradientUnits="userSpaceOnUse">
<stop stop-color="#249361"/>
<stop offset="1" stop-color="#3ECF8E"/>
</linearGradient>
<linearGradient id="paint1_linear_751_7282" x1="32.2795" y1="27.1292" x2="48.6542" y2="57.9537" gradientUnits="userSpaceOnUse">
<stop/>
<stop offset="1" stop-opacity="0"/>
</linearGradient>
</defs>
</svg>
