<svg width="89" height="100" viewBox="0 0 89 100" fill="none" xmlns="http://www.w3.org/2000/svg">
<path d="M44.1917 0.000488281L-7.62939e-06 25.0005V75.0005L44.1917 100.001L88.3833 75.0005V25.0005L44.1917 0.000488281Z" fill="white"/>
<path d="M7.89175 73.2754L42.7334 92.9838V77.6338L21.0251 65.6921L7.89175 73.2754ZM5.50842 71.1171V29.9004L18.2584 37.2588V63.7504L5.50842 71.1171ZM80.6334 73.2754L45.7918 92.9838V77.6338L67.5001 65.6921L80.6334 73.2754ZM83.0168 71.1171V29.9004L70.2668 37.2588V63.7504L83.0168 71.1171ZM81.5251 27.2338L45.7918 7.01709V21.8588L68.6834 34.4504L68.8584 34.5504L81.5251 27.2338ZM7.00008 27.2338L42.7334 7.01709V21.8588L19.8418 34.4504L19.6668 34.5504L7.00008 27.2338Z" fill="#8ED6FB"/>
<path d="M45.7916 74.1421L67.2083 62.3671V39.0338L45.7916 51.4005V74.1421ZM42.7333 74.1421L21.3166 62.3671V39.0338L42.7333 51.4005V74.1421ZM65.7583 36.3338L44.2583 24.5088L22.7583 36.3338L44.2583 48.7505L65.7583 36.3338Z" fill="#1C78C0"/>
</svg>
